<svg width="512" height="512" viewBox="0 0 512 512" fill="none" xmlns="http://www.w3.org/2000/svg">
<g clip-path="url(#clip0_1549_8605)">
<path d="M190.487 470.767C174.198 470.767 160.344 470.354 158.016 469.024C150.154 464.531 151.889 432.022 152.113 428.33C152.149 427.739 152.68 427.315 153.249 427.324C153.533 427.342 153.798 427.471 153.987 427.684C154.176 427.897 154.272 428.176 154.255 428.46C153.67 438.124 153.397 463.913 159.081 467.161C162.105 468.887 196.345 469.105 244.283 467.701C288.136 466.416 325.96 464.252 328.597 462.876C331.855 460.922 330.259 442.27 328.084 429.65C328.06 429.512 328.064 429.369 328.095 429.232C328.126 429.095 328.184 428.965 328.265 428.85C328.346 428.734 328.449 428.637 328.568 428.561C328.688 428.486 328.82 428.435 328.959 428.411C329.239 428.364 329.527 428.43 329.759 428.594C329.991 428.758 330.15 429.007 330.199 429.286C331.116 434.602 335.399 461.298 329.694 464.721C326.07 466.895 272.501 469.018 244.682 469.836C234.195 470.144 210.502 470.767 190.487 470.767Z" fill="#241726"/>
<path d="M146.746 144.074C146.746 144.074 322.904 133.532 326.123 149.625C329.342 165.718 335.578 347.926 331.286 445.561C330.817 456.234 157.475 454.144 152.32 448.951C144.144 440.716 133.871 144.074 146.746 144.074Z" fill="#E55D83"/>
<path d="M172.375 178.514C172.375 178.514 300.171 173.76 300.886 177.337C303.187 188.844 307.402 324.282 304.334 394.097C303.998 401.729 180.048 400.235 176.362 396.521C170.515 390.633 163.169 178.514 172.375 178.514Z" fill="white"/>
<path d="M237.679 400.644C221.341 400.644 178.34 400.039 175.598 397.277C171.8 393.451 168.872 327.218 167.856 292.731C166.423 244.129 166.292 188.834 170.221 179.397C170.422 178.913 171.035 177.441 172.374 177.441C173.009 177.417 240.25 174.932 277.012 174.932C301.497 174.932 301.691 175.9 301.936 177.127C304.155 188.218 308.485 324.052 305.404 394.145C305.215 398.457 282.429 400.644 237.679 400.644ZM172.537 179.582C169.888 182.197 167.931 216.848 169.849 287.324C171.522 348.788 174.968 393.026 177.136 395.783C179.128 397.031 204.532 398.498 237.679 398.498C280.746 398.498 301.882 396.125 303.294 393.919C306.302 324.857 302.136 191.635 299.908 177.968C298.805 177.64 294.378 177.077 277.012 177.077C241.034 177.078 175.799 179.461 172.537 179.582ZM242.769 444.489C234.191 444.489 227.212 437.51 227.212 428.932C227.212 420.354 234.191 413.375 242.769 413.375C251.347 413.375 258.326 420.354 258.326 428.932C258.326 437.509 251.347 444.489 242.769 444.489ZM242.769 415.52C235.374 415.52 229.358 421.536 229.358 428.931C229.358 436.326 235.374 442.342 242.769 442.342C250.164 442.342 256.18 436.326 256.18 428.931C256.18 421.536 250.164 415.52 242.769 415.52ZM214.336 164.104C214.057 164.105 213.788 163.998 213.587 163.804C213.386 163.61 213.268 163.345 213.259 163.066C213.25 162.787 213.35 162.515 213.538 162.309C213.726 162.102 213.988 161.977 214.266 161.96C217.575 161.741 246.7 159.827 250.311 160.549C250.586 160.609 250.827 160.774 250.981 161.01C251.135 161.245 251.191 161.532 251.136 161.808C251.08 162.084 250.919 162.327 250.686 162.486C250.453 162.644 250.167 162.704 249.89 162.653C247.368 162.148 227.291 163.243 214.408 164.102L214.336 164.104Z" fill="#241726"/>
<path d="M249.264 221.506L260.122 231.892C260.122 231.892 281.365 200.263 282.782 200.735C284.198 201.207 291.751 207.816 291.751 207.816C291.751 207.816 263.898 249.359 262.482 250.303C261.066 251.247 237.934 232.364 240.294 230.948C242.654 229.531 249.264 221.506 249.264 221.506ZM252.568 275.323L263.426 285.709C263.426 285.709 284.669 254.08 286.086 254.552C287.502 255.024 295.055 261.633 295.055 261.633C295.055 261.633 267.203 303.176 265.786 304.12C264.37 305.064 241.238 286.181 243.598 284.765C245.959 283.348 252.568 275.323 252.568 275.323ZM255.4 331.972L266.258 342.358C266.258 342.358 287.501 310.729 288.918 311.201C290.334 311.673 297.887 318.282 297.887 318.282C297.887 318.282 270.035 359.825 268.619 360.769C267.203 361.713 244.071 342.83 246.431 341.414C248.791 339.997 255.4 331.972 255.4 331.972Z" fill="#EF9A36"/>
<path d="M177.508 222.922C177.508 222.922 225.188 221.034 227.548 221.506C229.908 221.978 229.908 233.78 229.908 233.78C229.908 233.78 178.924 235.668 178.452 234.252C177.98 232.836 177.508 222.922 177.508 222.922Z" fill="#9D5580"/>
<path d="M188.836 196.486C188.836 196.486 260.57 194.598 264.121 195.07C267.672 195.542 267.672 207.344 267.672 207.344C267.672 207.344 190.966 209.232 190.256 207.816C189.546 206.4 188.836 196.486 188.836 196.486Z" fill="#F5D450"/>
<path d="M178.922 243.694C178.922 243.694 212.856 241.806 214.536 242.278C216.216 242.75 216.216 254.552 216.216 254.552C216.216 254.552 179.93 256.44 179.594 255.024C179.258 253.607 178.922 243.694 178.922 243.694ZM179.394 275.795C179.394 275.795 227.074 273.907 229.434 274.379C231.794 274.851 231.794 286.653 231.794 286.653C231.794 286.653 180.81 288.541 180.338 287.125C179.867 285.708 179.394 275.795 179.394 275.795ZM180.811 296.566C180.811 296.566 214.745 294.678 216.425 295.15C218.105 295.622 218.105 307.424 218.105 307.424C218.105 307.424 181.819 309.312 181.483 307.896C181.147 306.48 180.811 296.566 180.811 296.566ZM186.948 329.139C186.948 329.139 234.628 327.251 236.988 327.723C239.348 328.195 239.348 339.997 239.348 339.997C239.348 339.997 188.364 341.885 187.892 340.469C187.42 339.053 186.948 329.139 186.948 329.139ZM188.364 349.91C188.364 349.91 222.298 348.022 223.978 348.494C225.658 348.966 225.658 360.768 225.658 360.768C225.658 360.768 189.372 362.656 189.036 361.24C188.7 359.824 188.364 349.91 188.364 349.91Z" fill="#9D5580"/>
<path d="M471.401 223.303C471.253 223.303 470.982 223.252 470.847 223.192C470.054 222.844 467.948 221.92 472.498 203.364C472.592 202.981 472.89 202.68 473.272 202.581C483.415 199.961 498.431 195.919 505.824 193.601C494.795 194.006 469.462 196.289 469.183 196.314C468.883 196.345 468.59 196.243 468.367 196.041C466.988 194.794 460.123 188.401 460.382 184.923C460.505 183.272 462.93 183.272 464.379 183.272C473.055 183.272 507.044 189.094 511.34 191.687C511.388 191.712 511.432 191.738 511.474 191.767C511.533 191.807 511.589 191.854 511.639 191.907C511.661 191.927 511.681 191.948 511.7 191.97C511.748 192.028 511.788 192.088 511.821 192.152C511.825 192.156 511.827 192.162 511.829 192.167L511.844 192.191C511.894 192.277 511.932 192.37 511.959 192.47V192.475C512.11 193.069 511.798 193.577 511.471 193.996C508.129 198.287 474.958 223.303 471.401 223.303ZM474.431 204.498C472.811 211.235 471.47 218.896 471.82 221.009C476.097 219.211 498.657 202.623 506.922 195.468C502.157 197.059 492.815 199.744 474.431 204.498ZM462.563 185.531C463.005 187.498 466.628 191.517 469.461 194.134C472.901 193.825 492.833 192.06 503.789 191.539C493.202 189.1 472.348 185.418 464.379 185.418C463.415 185.418 462.866 185.477 462.563 185.531Z" fill="#241726"/>
<path d="M465.127 212.906C464.728 212.906 464.374 212.858 464.084 212.747C463.506 212.525 463.233 212.132 463.106 211.843C462.378 210.178 465.369 201.888 468.006 195.228C468.055 195.093 468.13 194.968 468.228 194.862C468.325 194.757 468.443 194.671 468.574 194.612C468.705 194.553 468.847 194.52 468.991 194.517C469.135 194.513 469.278 194.539 469.412 194.592C469.546 194.645 469.668 194.724 469.77 194.826C469.873 194.927 469.954 195.047 470.009 195.18C470.063 195.313 470.091 195.456 470.09 195.6C470.088 195.744 470.058 195.886 470 196.018C467.66 201.926 465.245 208.934 465.101 210.784C466.117 210.84 469.068 209.905 471.81 208.669C472.07 208.552 472.365 208.542 472.631 208.643C472.897 208.743 473.113 208.945 473.23 209.205C473.347 209.464 473.357 209.759 473.256 210.025C473.156 210.291 472.954 210.507 472.694 210.624C471.036 211.372 467.366 212.906 465.127 212.906ZM67.6195 268.399C66.8215 268.399 66.0665 268.399 63.9555 259.985C56.8205 258.613 56.1975 257.776 55.9885 257.496C55.7895 257.229 55.7035 256.736 55.7935 256.415C55.9225 255.96 56.2195 254.904 64.3695 251.62C67.2935 243.993 68.2805 243.993 68.9385 243.993C69.2775 243.993 69.7455 244.237 69.9475 244.509C70.4705 245.211 70.9435 247.035 71.6625 249.957C71.8885 250.876 72.1615 251.986 72.3185 252.471C72.7445 252.662 73.6905 253 74.4755 253.282C78.6625 254.782 79.7415 255.294 79.9365 256.288C80.0085 256.659 79.8195 257.203 79.5375 257.455C78.6885 258.217 74.6345 259.721 72.5135 260.477C69.0645 268.324 68.3305 268.364 67.6825 268.398L67.6195 268.399ZM58.7095 256.571C60.1315 256.984 62.7465 257.578 65.0275 258.003C65.4415 258.081 65.7715 258.393 65.8715 258.801C66.4545 261.163 67.2165 263.853 67.7625 265.377C68.5525 263.958 69.7575 261.427 70.7325 259.19C70.8515 258.918 71.0795 258.706 71.3605 258.607C73.3095 257.921 75.5115 257.078 76.8725 256.481C75.9145 256.076 74.6015 255.605 73.7515 255.3C71.3625 254.444 70.9135 254.258 70.6075 253.848C70.3405 253.489 70.1735 252.887 69.5785 250.468C69.3535 249.55 69.0055 248.139 68.6985 247.091C67.9865 248.445 66.9855 250.765 66.2075 252.82C66.1546 252.959 66.0734 253.086 65.9691 253.192C65.8648 253.298 65.7396 253.381 65.6015 253.436C63.0715 254.448 60.2005 255.735 58.7095 256.571ZM292.348 58.8201C291.55 58.8201 290.795 58.8201 288.683 50.4061C281.548 49.0321 280.925 48.1961 280.717 47.9151C280.518 47.6481 280.432 47.1561 280.522 46.8361C280.651 46.3801 280.948 45.3241 289.097 42.0401C292.021 34.4141 293.008 34.4141 293.666 34.4141C294.004 34.4141 294.473 34.6581 294.675 34.9291C295.198 35.6301 295.672 37.4561 296.391 40.3801C296.616 41.2981 296.889 42.4061 297.046 42.8901C297.473 43.0811 298.421 43.4211 299.208 43.7031C303.392 45.2031 304.471 45.7141 304.666 46.7081C304.738 47.0791 304.549 47.6231 304.268 47.8741C303.416 48.6371 299.363 50.1411 297.242 50.8961C293.793 58.7451 293.059 58.7821 292.41 58.8171C292.39 58.8201 292.367 58.8201 292.348 58.8201ZM283.438 46.9931C284.86 47.4061 287.474 48.0011 289.755 48.4251C290.169 48.5031 290.499 48.8151 290.599 49.2241C291.182 51.5861 291.944 54.2771 292.491 55.8001C293.281 54.3831 294.485 51.8501 295.46 49.6141C295.579 49.3401 295.807 49.1291 296.088 49.0301C298.037 48.3451 300.239 47.5011 301.6 46.9051C300.643 46.5011 299.33 46.0291 298.483 45.7251C296.091 44.8671 295.64 44.6811 295.334 44.2701C295.067 43.9121 294.9 43.3101 294.306 40.8941C294.081 39.9761 293.733 38.5631 293.425 37.5141C292.713 38.8681 291.712 41.1881 290.934 43.2431C290.882 43.3821 290.8 43.5086 290.696 43.6146C290.592 43.7207 290.467 43.8039 290.328 43.8591C287.8 44.8691 284.929 46.1561 283.438 46.9931ZM376.75 191.861C375.952 191.861 375.197 191.861 373.085 183.448C365.951 182.075 365.327 181.239 365.118 180.958C364.919 180.691 364.833 180.198 364.923 179.877C365.052 179.422 365.35 178.366 373.499 175.083C376.423 167.457 377.41 167.457 378.068 167.457C378.406 167.457 378.875 167.701 379.077 167.972C379.6 168.674 380.073 170.498 380.792 173.419C381.018 174.338 381.291 175.448 381.448 175.933C381.875 176.124 382.823 176.464 383.608 176.746C387.793 178.247 388.871 178.757 389.066 179.751C389.138 180.122 388.949 180.666 388.667 180.918C387.818 181.68 383.765 183.184 381.643 183.939C378.194 191.788 377.46 191.825 376.811 191.86L376.75 191.861ZM367.839 180.033C369.261 180.446 371.876 181.04 374.157 181.465C374.571 181.543 374.901 181.855 375.001 182.263C375.584 184.625 376.346 187.316 376.893 188.839C377.683 187.421 378.887 184.889 379.862 182.653C379.981 182.38 380.209 182.168 380.49 182.069C382.439 181.384 384.641 180.54 386.001 179.944C385.045 179.54 383.733 179.068 382.884 178.764C380.493 177.906 380.043 177.72 379.737 177.309C379.47 176.951 379.303 176.349 378.708 173.93C378.483 173.013 378.135 171.602 377.828 170.554C377.116 171.907 376.115 174.228 375.337 176.282C375.285 176.421 375.203 176.548 375.099 176.654C374.995 176.76 374.87 176.843 374.731 176.898C372.202 177.91 369.33 179.197 367.839 180.033ZM357.304 477.616C356.506 477.616 355.751 477.616 353.64 469.203C346.505 467.83 345.882 466.994 345.673 466.713C345.474 466.446 345.388 465.953 345.478 465.632C345.607 465.177 345.905 464.121 354.054 460.837C356.978 453.211 357.965 453.211 358.623 453.211C358.961 453.211 359.43 453.455 359.632 453.726C360.155 454.428 360.628 456.252 361.347 459.174C361.573 460.093 361.846 461.203 362.003 461.688C362.43 461.879 363.376 462.217 364.16 462.499C368.347 463.999 369.426 464.511 369.621 465.505C369.693 465.876 369.504 466.42 369.222 466.672C368.373 467.434 364.319 468.938 362.198 469.694C358.749 477.541 358.015 477.581 357.367 477.615L357.304 477.616ZM348.394 465.789C349.816 466.202 352.431 466.796 354.712 467.221C355.126 467.298 355.456 467.611 355.556 468.019C356.139 470.381 356.901 473.071 357.447 474.595C358.237 473.176 359.442 470.645 360.417 468.408C360.537 468.136 360.764 467.924 361.045 467.826C362.994 467.14 365.196 466.297 366.557 465.7C365.599 465.295 364.285 464.824 363.436 464.519C361.047 463.663 360.598 463.478 360.292 463.067C360.025 462.708 359.858 462.106 359.263 459.687C359.038 458.769 358.69 457.358 358.383 456.31C357.671 457.664 356.67 459.984 355.892 462.039C355.84 462.178 355.758 462.305 355.654 462.411C355.55 462.517 355.425 462.6 355.286 462.655C352.757 463.665 349.885 464.952 348.394 465.789Z" fill="#241726"/>
<path d="M81.341 289.233C81.341 289.233 79.116 273.528 94.302 278.469C109.488 283.409 104.696 297.855 98.878 292.985C93.059 288.114 103.723 271.299 115.379 278.626C127.034 285.954 124.584 300.417 116.379 301.562C108.174 302.708 121.188 284.703 131.646 295.642C142.103 306.581 119.703 326.93 110.389 319.62C101.076 312.31 108.191 300.295 110.479 307.553C112.767 314.811 106.858 322.008 90.465 321.886C74.072 321.764 81.286 296.475 87.087 303.759C92.888 311.043 83.457 319.42 71.811 310.886C60.165 302.35 73.18 284.345 81.341 289.233Z" fill="white"/>
<path d="M90.8782 322.958L90.4582 322.957C85.0792 322.917 81.2652 320.202 79.8802 315.471C77.0502 315.137 74.0592 313.861 71.1782 311.75C66.5802 308.381 65.0032 303.216 66.8472 297.58C68.7272 291.833 73.7772 287.332 78.3442 287.332C78.9672 287.332 79.5722 287.412 80.1562 287.57C80.1182 285.366 80.4292 281.634 82.6412 279.088C85.1032 276.251 89.1772 275.672 94.6362 277.447C96.7382 278.131 98.5832 279.027 100.136 280.117C104.466 275.468 110.677 274.399 115.951 277.717C120.988 280.883 124.078 285.797 124.386 291.031C127.323 291.092 130.026 292.393 132.423 294.9C135.706 298.334 136.333 302.984 134.192 307.994C130.948 315.583 122.066 322.24 115.184 322.241C113.068 322.241 111.232 321.643 109.729 320.464C109.022 319.912 108.367 319.297 107.77 318.626C104.081 321.465 98.2762 322.958 90.8782 322.958ZM82.1562 315.53C83.1212 318.152 85.3652 320.773 90.4742 320.811L90.8772 320.812C99.4042 320.812 104.019 318.812 106.477 316.911C104.128 313.18 104.278 309.087 105.555 306.541C106.292 305.073 107.371 304.231 108.516 304.231C109.279 304.231 110.68 304.621 111.502 307.229C112.648 310.866 111.864 314.441 109.353 317.181C109.852 317.747 110.421 318.281 111.05 318.776C112.166 319.652 113.555 320.096 115.18 320.096C121.201 320.095 129.321 313.926 132.216 307.152C133.478 304.201 134.267 299.938 130.87 296.384C128.886 294.31 126.695 293.23 124.352 293.177C123.898 298.209 120.784 302.03 116.527 302.625C113.724 303.007 112.781 301.548 112.721 300.191C112.588 297.231 116.81 292.217 122.244 291.209C121.994 286.649 119.266 282.339 114.807 279.535C110.424 276.778 105.445 277.65 101.808 281.472C105.426 284.858 106.119 289.051 105.13 291.864C104.031 294.986 100.798 295.992 98.1902 293.808C94.9732 291.116 95.9432 285.796 98.7762 281.788C97.4242 280.861 95.8132 280.09 93.9712 279.49C89.4072 278.002 86.1482 278.326 84.2652 280.492C81.6602 283.485 82.3972 289.03 82.4042 289.086C82.4317 289.287 82.4021 289.49 82.3188 289.675C82.2355 289.859 82.102 290.016 81.9335 290.127C81.765 290.239 81.5685 290.301 81.3664 290.306C81.1643 290.311 80.965 290.259 80.7912 290.155C80.0528 289.71 79.2064 289.477 78.3442 289.48C74.7102 289.48 70.4682 293.414 68.8862 298.25C68.1592 300.471 67.0502 306.067 72.4462 310.021C74.7862 311.735 77.1742 312.831 79.4312 313.238C79.0102 309.573 79.9312 305.439 81.7802 303.12C82.6932 301.975 83.7652 301.37 84.8802 301.37C85.6452 301.37 86.7932 301.669 87.9272 303.091C90.0042 305.699 90.4902 308.655 89.2632 311.201C88.0652 313.684 85.3852 315.3 82.1562 315.53ZM108.517 306.377C108.333 306.377 107.886 306.683 107.474 307.504C106.546 309.352 106.413 312.477 108.069 315.39C109.832 313.264 110.327 310.638 109.455 307.873C109.071 306.652 108.639 306.377 108.517 306.377ZM84.8812 303.513C84.4482 303.513 83.9432 303.847 83.4582 304.455C82.0712 306.194 81.0762 309.904 81.6172 313.408C84.2512 313.334 86.4252 312.144 87.3312 310.267C88.1862 308.492 87.7922 306.363 86.2502 304.426C85.9172 304.009 85.4112 303.513 84.8812 303.513ZM122.168 293.414C117.819 294.444 114.793 298.48 114.865 300.092C114.874 300.292 114.886 300.54 115.673 300.54C115.843 300.54 116.029 300.526 116.231 300.498C119.357 300.062 121.68 297.224 122.168 293.414ZM100.446 283.136C98.0182 286.602 97.5862 290.502 99.5672 292.16C101.052 293.398 102.477 292.941 103.106 291.15C103.849 289.037 103.269 285.841 100.446 283.136Z" fill="#241726"/>
<path d="M192.567 47.8285C192.567 47.8285 190.342 32.1235 205.528 37.0645C220.714 42.0045 215.922 56.4505 210.104 51.5805C204.285 46.7095 214.949 29.8945 226.605 37.2215C238.26 44.5495 235.811 59.0125 227.605 60.1585C219.4 61.3045 232.415 43.2995 242.872 54.2385C253.329 65.1775 230.929 85.5265 221.616 78.2155C212.303 70.9055 219.418 58.8905 221.706 66.1485C223.994 73.4065 218.085 80.6035 201.692 80.4805C185.299 80.3575 192.514 55.0695 198.314 62.3535C204.115 69.6375 194.684 78.0145 183.038 69.4805C171.392 60.9455 184.407 42.9405 192.567 47.8285Z" fill="white"/>
<path d="M202.105 81.5532L201.685 81.5522C196.306 81.5122 192.492 78.7962 191.107 74.0662C188.276 73.7322 185.286 72.4562 182.405 70.3452C177.807 66.9752 176.229 61.8112 178.074 56.1742C179.954 50.4282 185.004 45.9272 189.57 45.9272C190.193 45.9272 190.799 46.0072 191.382 46.1652C191.343 43.9602 191.655 40.2292 193.866 37.6832C196.328 34.8472 200.405 34.2662 205.861 36.0422C207.963 36.7262 209.808 37.6222 211.362 38.7122C215.691 34.0632 221.904 32.9942 227.177 36.3112C232.213 39.4772 235.303 44.3912 235.611 49.6252C238.548 49.6862 241.25 50.9872 243.647 53.4942C246.93 56.9282 247.558 61.5782 245.417 66.5892C242.173 74.1772 233.291 80.8342 226.409 80.8352C224.292 80.8352 222.457 80.2372 220.954 79.0582C220.247 78.5056 219.592 77.8904 218.995 77.2202C215.308 80.0602 209.503 81.5532 202.105 81.5532ZM193.384 74.1262C194.349 76.7482 196.593 79.3692 201.702 79.4072L202.105 79.4082C210.633 79.4082 215.247 77.4082 217.705 75.5072C215.356 71.7752 215.506 67.6822 216.784 65.1362C217.521 63.6692 218.599 62.8272 219.744 62.8272C220.506 62.8272 221.908 63.2172 222.73 65.8252C223.876 69.4632 223.091 73.0372 220.58 75.7772C221.08 76.3432 221.648 76.8772 222.279 77.3722C223.395 78.2482 224.784 78.6922 226.409 78.6922C232.429 78.6912 240.548 72.5222 243.444 65.7482C244.704 62.7972 245.494 58.5342 242.097 54.9802C240.114 52.9052 237.922 51.8272 235.58 51.7732C235.126 56.8052 232.011 60.6272 227.754 61.2212C224.958 61.6082 224.009 60.1432 223.949 58.7872C223.815 55.8272 228.038 50.8122 233.472 49.8052C233.222 45.2452 230.494 40.9352 226.035 38.1312C221.653 35.3752 216.673 36.2442 213.034 40.0682C216.653 43.4542 217.347 47.6482 216.357 50.4602C215.259 53.5832 212.02 54.5862 209.416 52.4042C206.199 49.7122 207.17 44.3922 210.003 40.3842C208.65 39.4572 207.039 38.6852 205.197 38.0862C200.632 36.6002 197.371 36.9222 195.487 39.0922C192.875 42.1002 193.622 47.6242 193.63 47.6792C193.658 47.8796 193.629 48.0838 193.546 48.2683C193.463 48.4528 193.329 48.6101 193.161 48.722C192.992 48.8339 192.795 48.896 192.593 48.901C192.391 48.906 192.191 48.8537 192.017 48.7502C191.279 48.3055 190.432 48.072 189.57 48.0752C185.937 48.0752 181.695 52.0092 180.113 56.8442C179.386 59.0662 178.277 64.6622 183.673 68.6172C186.013 70.3312 188.4 71.4272 190.658 71.8342C190.237 68.1692 191.157 64.0352 193.006 61.7162C193.92 60.5712 194.991 59.9662 196.107 59.9662C196.872 59.9662 198.02 60.2652 199.154 61.6872C201.231 64.2942 201.717 67.2502 200.49 69.7972C199.292 72.2802 196.612 73.8952 193.384 74.1262ZM219.744 64.9722C219.56 64.9722 219.113 65.2782 218.702 66.0982C217.775 67.9462 217.642 71.0712 219.297 73.9862C221.06 71.8602 221.555 69.2342 220.683 66.4692C220.298 65.2482 219.866 64.9722 219.744 64.9722ZM196.108 62.1092C195.675 62.1092 195.169 62.4432 194.684 63.0512C193.298 64.7902 192.304 68.5012 192.844 72.0042C195.477 71.9292 197.652 70.7402 198.557 68.8622C199.412 67.0882 199.018 64.9592 197.476 63.0222C197.144 62.6052 196.638 62.1092 196.108 62.1092ZM233.396 52.0102C229.047 53.0402 226.02 57.0762 226.093 58.6902C226.101 58.8892 226.113 59.1372 226.9 59.1372C227.071 59.1372 227.256 59.1232 227.457 59.0952C230.583 58.6582 232.906 55.8192 233.396 52.0102ZM211.673 41.7322C209.245 45.1982 208.813 49.0982 210.793 50.7562C212.277 51.9962 213.702 51.5372 214.333 49.7462C215.076 47.6332 214.496 44.4362 211.673 41.7322Z" fill="#241726"/>
<path d="M409.754 413.994C409.754 413.994 407.529 398.289 422.715 403.23C437.901 408.17 433.109 422.616 427.291 417.746C421.472 412.875 432.136 396.06 443.792 403.387C455.447 410.715 452.998 425.178 444.792 426.324C436.587 427.47 449.602 409.465 460.059 420.404C470.516 431.343 448.116 451.692 438.803 444.381C429.49 437.071 436.605 425.056 438.893 432.314C441.181 439.572 435.272 446.768 418.879 446.646C402.486 446.524 409.701 421.235 415.501 428.519C421.302 435.803 411.871 444.18 400.225 435.646C388.579 427.111 401.594 409.106 409.754 413.994Z" fill="white"/>
<path d="M419.281 447.72L418.865 447.719C413.485 447.679 409.671 444.962 408.287 440.232C405.456 439.898 402.466 438.622 399.585 436.512C394.989 433.143 393.41 427.979 395.254 422.343C397.134 416.596 402.184 412.095 406.75 412.095C407.373 412.095 407.979 412.175 408.563 412.333C408.525 410.129 408.836 406.398 411.048 403.851C413.509 401.015 417.584 400.433 423.043 402.21C425.145 402.894 426.99 403.79 428.543 404.88C432.872 400.232 439.082 399.165 444.358 402.48C449.395 405.646 452.485 410.559 452.793 415.793C455.73 415.854 458.433 417.155 460.83 419.662C464.113 423.097 464.74 427.748 462.599 432.758C459.355 440.347 450.473 447.003 443.591 447.003C441.475 447.003 439.639 446.405 438.137 445.225C437.43 444.674 436.775 444.059 436.179 443.389C432.488 446.227 426.682 447.72 419.281 447.72ZM410.564 440.291C411.528 442.915 413.771 445.535 418.882 445.573L419.281 445.574C427.812 445.574 432.427 443.574 434.886 441.673C432.536 437.942 432.686 433.848 433.963 431.303C434.7 429.835 435.779 428.993 436.924 428.993C437.687 428.993 439.088 429.383 439.91 431.991C441.056 435.628 440.272 439.203 437.761 441.943C438.278 442.525 438.845 443.058 439.458 443.537C440.574 444.413 441.963 444.857 443.588 444.857C449.608 444.857 457.728 438.688 460.624 431.914C461.886 428.963 462.676 424.7 459.278 421.145C457.294 419.07 455.103 417.991 452.76 417.938C452.306 422.97 449.192 426.792 444.935 427.387C444.652 427.428 444.367 427.449 444.081 427.45C441.989 427.45 441.183 426.16 441.128 424.953C440.994 421.993 445.216 416.977 450.651 415.969C450.401 411.41 447.673 407.099 443.214 404.296C438.832 401.54 433.853 402.413 430.213 406.232C433.831 409.618 434.525 413.811 433.537 416.624C432.846 418.588 431.35 419.807 429.63 419.808H429.629C428.599 419.808 427.578 419.391 426.597 418.569C423.38 415.876 424.35 410.556 427.183 406.548C425.83 405.621 424.22 404.85 422.378 404.251C417.814 402.765 414.554 403.087 412.672 405.253C410.067 408.246 410.804 413.791 410.811 413.847C410.839 414.048 410.809 414.251 410.726 414.436C410.642 414.62 410.509 414.777 410.34 414.888C410.172 415 409.975 415.062 409.773 415.067C409.571 415.072 409.372 415.02 409.198 414.916C408.459 414.471 407.613 414.238 406.75 414.241C403.117 414.241 398.875 418.175 397.294 423.01C396.567 425.232 395.458 430.828 400.853 434.782C403.193 436.496 405.581 437.592 407.839 437.999C407.417 434.333 408.339 430.198 410.188 427.88C411.101 426.736 412.172 426.131 413.287 426.131C414.052 426.131 415.2 426.43 416.334 427.852C418.411 430.46 418.897 433.416 417.67 435.962C416.472 438.445 413.792 440.061 410.564 440.291ZM436.925 431.139C436.741 431.139 436.294 431.445 435.882 432.265C434.955 434.114 434.822 437.238 436.477 440.152C438.24 438.027 438.735 435.401 437.863 432.636C437.479 431.415 437.046 431.139 436.925 431.139ZM413.288 428.274C412.855 428.274 412.35 428.608 411.866 429.215C410.479 430.954 409.485 434.664 410.024 438.169C412.658 438.095 414.832 436.906 415.738 435.028C416.593 433.253 416.199 431.124 414.657 429.187C414.324 428.77 413.818 428.274 413.288 428.274ZM450.576 418.175C446.226 419.205 443.2 423.242 443.273 424.854C443.281 425.054 443.293 425.302 444.081 425.302H444.082C444.252 425.302 444.437 425.288 444.638 425.26C447.765 424.824 450.088 421.986 450.576 418.175ZM428.854 407.898C426.426 411.365 425.994 415.265 427.975 416.923C428.552 417.406 429.124 417.662 429.631 417.662C430.425 417.661 431.129 417.007 431.515 415.912C432.257 413.799 431.676 410.602 428.854 407.898ZM216.388 117.32H216.355C212.161 117.302 208.765 113.876 208.783 109.684C208.801 105.509 212.212 102.113 216.386 102.113C220.613 102.131 224.008 105.557 223.991 109.749C223.972 113.924 220.561 117.32 216.388 117.32ZM216.411 104.258C213.39 104.258 210.942 106.696 210.929 109.692C210.924 111.139 211.494 112.529 212.513 113.557C213.531 114.585 214.916 115.166 216.363 115.174L216.388 116.247V115.174C217.83 115.171 219.213 114.598 220.235 113.58C221.257 112.563 221.836 111.183 221.845 109.74C221.85 108.293 221.28 106.904 220.262 105.876C219.243 104.848 217.858 104.266 216.411 104.258ZM366.538 289.394H366.504C362.312 289.376 358.916 285.95 358.933 281.758C358.951 277.583 362.362 274.187 366.538 274.187C370.762 274.205 374.158 277.631 374.141 281.823C374.123 285.998 370.711 289.394 366.538 289.394ZM366.561 276.332C363.541 276.332 361.092 278.77 361.079 281.766C361.075 283.213 361.645 284.603 362.663 285.63C363.682 286.658 365.066 287.24 366.513 287.248L366.538 288.321V287.248C367.981 287.245 369.363 286.672 370.385 285.655C371.407 284.637 371.986 283.257 371.995 281.814C372 280.367 371.43 278.978 370.412 277.95C369.393 276.922 368.008 276.34 366.561 276.332ZM124.18 465.063H124.15C119.956 465.045 116.56 461.619 116.578 457.427C116.596 453.252 120.007 449.856 124.181 449.856C125.186 449.854 126.18 450.052 127.108 450.438C128.035 450.824 128.876 451.391 129.582 452.105C130.287 452.813 130.845 453.653 131.223 454.578C131.601 455.502 131.792 456.492 131.785 457.491C131.767 461.667 128.356 465.063 124.18 465.063ZM124.205 452.002C121.184 452.002 118.736 454.44 118.723 457.436C118.718 458.883 119.288 460.273 120.307 461.301C121.325 462.329 122.71 462.91 124.157 462.918L124.18 463.991V462.918C125.623 462.915 127.006 462.343 128.029 461.325C129.051 460.307 129.63 458.926 129.639 457.483C129.644 456.766 129.507 456.055 129.236 455.392C128.964 454.728 128.564 454.125 128.057 453.617C127.554 453.107 126.954 452.701 126.293 452.423C125.632 452.146 124.922 452.003 124.205 452.002Z" fill="#241726"/>
<path d="M486.71 75.7921C486.71 93.1801 486.944 143.792 480.978 148.097C475.012 152.402 298.409 151.326 293.636 154.555C288.863 157.784 263.805 193.3 262.611 185.767C261.418 178.233 250.678 83.5221 263.804 78.1411C276.93 72.7591 486.71 67.1821 486.71 75.7921Z" fill="#00AACF"/>
<path d="M285.538 107.575C285.538 107.575 290.84 93.2614 292.43 94.3214C294.02 95.3814 300.647 107.31 301.442 108.105C302.237 108.9 315.756 111.021 316.021 112.346C316.286 113.672 305.418 121.624 305.418 121.624C305.418 121.624 309.129 132.757 307.539 133.817C305.949 134.877 293.755 126.13 293.755 126.13C293.755 126.13 282.092 138.853 281.297 136.468C280.502 134.082 281.827 121.889 281.827 121.889C281.827 121.889 272.55 116.853 272.55 114.732C272.55 111.54 285.538 107.575 285.538 107.575ZM334.899 106.734C334.899 106.734 340.2 92.4204 341.791 93.4804C343.382 94.5404 350.008 106.468 350.803 107.264C351.598 108.059 365.117 110.18 365.382 111.505C365.647 112.83 354.779 120.782 354.779 120.782C354.779 120.782 358.49 131.915 356.9 132.975C355.31 134.035 343.116 125.288 343.116 125.288C343.116 125.288 331.453 138.011 330.658 135.626C329.863 133.24 331.188 121.047 331.188 121.047C331.188 121.047 321.91 116.011 321.91 113.89C321.911 110.699 334.899 106.734 334.899 106.734ZM387.626 103.929C387.626 103.929 392.927 89.6154 394.518 90.6754C396.108 91.7354 402.735 103.663 403.53 104.459C404.325 105.254 417.844 107.375 418.109 108.7C418.374 110.026 407.506 117.978 407.506 117.978C407.506 117.978 411.217 129.111 409.627 130.171C408.037 131.231 395.843 122.484 395.843 122.484C395.843 122.484 384.18 135.207 383.385 132.822C382.59 130.436 383.915 118.243 383.915 118.243C383.915 118.243 374.638 113.207 374.638 111.086C374.637 107.894 387.626 103.929 387.626 103.929ZM440.556 101.068C440.556 101.068 445.857 86.7544 447.448 87.8144C449.038 88.8744 455.665 100.803 456.461 101.598C457.256 102.393 470.775 104.514 471.04 105.839C471.305 107.164 460.437 115.117 460.437 115.117C460.437 115.117 464.148 126.25 462.558 127.31C460.968 128.37 448.774 119.623 448.774 119.623C448.774 119.623 437.111 132.346 436.316 129.961C435.521 127.575 436.846 115.382 436.846 115.382C436.846 115.382 427.569 110.346 427.569 108.225C427.567 105.033 440.556 101.068 440.556 101.068ZM53.2089 142.108C53.2089 142.108 80.5959 120.732 114.614 134.039C143.467 145.325 140.122 186.076 127.878 201.381C115.634 216.686 131.959 221.787 124.817 228.93C117.675 236.072 106.451 244.235 98.2889 240.153C90.1259 236.072 94.2079 223.19 74.8209 227.271C66.5889 229.004 -8.01006 199.246 53.2089 142.108Z" fill="#F5D450"/>
<path d="M89.7443 231.863C89.7443 231.863 122.46 211.596 125.328 215.793C126.335 217.267 137.637 230.78 134.25 234.45C130.863 238.12 103.198 252.516 100.94 251.387C98.6813 250.258 88.6153 233.556 89.7443 231.863Z" fill="#E55D83"/>
<path d="M117.291 224.558C117.291 224.558 131.32 247.611 130.854 248.912C130.387 250.213 120.419 259.081 117.422 256.467C114.425 253.853 102.701 232.544 103.631 230.81C104.561 229.076 115.907 223.685 117.291 224.558Z" fill="#E55D83"/>
<path d="M95.4883 237.527C95.2511 237.529 95.0201 237.452 94.8315 237.308C94.6429 237.164 94.5073 236.962 94.4461 236.732C94.3849 236.503 94.4015 236.26 94.4933 236.042C94.5851 235.823 94.7469 235.641 94.9533 235.524C95.9113 234.975 118.466 222.052 125.376 219.749C125.51 219.704 125.651 219.687 125.791 219.697C125.932 219.707 126.069 219.744 126.195 219.807C126.321 219.87 126.434 219.957 126.526 220.064C126.618 220.17 126.689 220.293 126.733 220.427C126.778 220.561 126.796 220.702 126.786 220.842C126.776 220.983 126.738 221.12 126.675 221.246C126.612 221.372 126.525 221.484 126.419 221.577C126.312 221.669 126.189 221.739 126.055 221.784C119.347 224.02 96.2553 237.252 96.0223 237.385C95.8596 237.478 95.6756 237.527 95.4883 237.527ZM98.5503 243.648C98.3108 243.647 98.0785 243.566 97.8903 243.418C97.7021 243.27 97.5687 243.064 97.5114 242.831C97.454 242.599 97.476 242.354 97.5738 242.135C97.6716 241.917 97.8397 241.737 98.0513 241.625C99.0103 241.123 121.604 229.297 129.677 227.376C129.951 227.318 130.237 227.369 130.474 227.519C130.71 227.668 130.879 227.905 130.944 228.177C131.009 228.449 130.965 228.736 130.821 228.977C130.677 229.217 130.445 229.392 130.174 229.463C122.36 231.324 99.2813 243.404 99.0493 243.526C98.8951 243.606 98.7239 243.648 98.5503 243.648ZM100.003 228.726C99.6513 228.726 99.3063 228.553 99.1013 228.236C92.1323 217.447 84.3933 206.756 78.0013 199.221C75.0853 199.668 71.9303 199.185 68.8423 197.746C64.8373 195.88 62.0563 192.791 62.0783 190.236C62.0853 189.389 62.4143 187.827 64.5323 186.885C67.5213 185.542 72.9813 190.232 78.8033 196.875C80.2743 196.503 81.7763 195.793 83.1983 194.577C84.6166 193.374 85.7617 191.883 86.5573 190.202C84.0553 189.069 81.9783 187.405 80.6783 185.534C78.5583 182.483 78.5393 179.174 80.6283 176.457C82.2543 174.34 83.9623 174.324 84.8363 174.501C86.8913 174.92 88.6883 177.193 89.5253 180.432C90.1413 182.814 90.2393 185.903 89.3183 188.976C91.8873 189.746 94.8073 189.873 97.6733 188.99C98.4763 188.743 99.23 188.358 99.9003 187.852C97.3483 180.749 96.2813 174.506 98.8063 171.729C100.762 169.578 102.36 169.619 103.352 170.028C105.795 171.039 106.489 175.081 106.342 178.235C106.183 181.627 105.032 185.717 102.437 188.45C106.14 198.066 112.583 210.005 117.828 218.486C117.977 218.728 118.023 219.019 117.958 219.295C117.892 219.572 117.72 219.811 117.478 219.96C117.237 220.109 116.946 220.157 116.67 220.092C116.393 220.028 116.153 219.856 116.003 219.615C114.456 217.114 105.606 202.588 100.677 189.926C99.9434 190.408 99.1452 190.783 98.3063 191.041C94.9703 192.068 91.5653 191.897 88.5693 190.964C87.6447 192.982 86.2872 194.772 84.5933 196.207C83.3395 197.283 81.8934 198.111 80.3313 198.649C89.0463 208.971 98.1793 222.849 100.905 227.07C101.01 227.232 101.069 227.42 101.077 227.612C101.084 227.805 101.039 227.997 100.947 228.166C100.854 228.336 100.718 228.477 100.552 228.576C100.386 228.674 100.196 228.726 100.003 228.726ZM65.9593 188.735C65.7543 188.735 65.5693 188.772 65.4043 188.845C64.3543 189.312 64.2273 189.873 64.2243 190.254C64.2113 191.708 66.2743 194.181 69.7493 195.801C70.7913 196.286 73.2623 197.264 76.2653 197.216C71.6503 191.998 67.9133 188.735 65.9593 188.735ZM84.1393 176.576C83.5443 176.576 82.9363 176.974 82.3293 177.764C80.3023 180.402 81.5293 182.996 82.4403 184.309C83.5203 185.863 85.2343 187.249 87.3073 188.212C88.0603 185.604 87.9703 182.99 87.4473 180.968C86.8353 178.603 85.6133 176.849 84.4063 176.603C84.3185 176.585 84.229 176.576 84.1393 176.576ZM102.255 171.958C101.577 171.958 100.748 172.781 100.393 173.172C98.6403 175.099 99.4293 179.998 101.586 186.143C103.293 183.87 104.073 180.763 104.197 178.135C104.353 174.798 103.472 172.401 102.53 172.011C102.443 171.975 102.35 171.957 102.255 171.958Z" fill="#241726"/>
<path d="M44.5275 133.424C44.5275 133.424 63.8995 126.076 61.8955 124.072C59.8915 122.068 41.1875 110.712 41.1875 113.384C41.1875 116.056 41.1875 132.756 44.5275 133.424Z" fill="#EF9A36"/>
<path d="M68.0714 120.879C68.0714 120.879 88.7893 120.911 87.6303 118.324C86.4713 115.738 75.5383 96.8601 74.5863 99.3561C73.6353 101.853 65.1884 119.065 68.0714 120.879ZM26.6093 151.885C26.6093 151.885 41.5434 137.525 38.9144 136.468C36.2844 135.411 15.3093 129.413 16.3583 131.871C17.4063 134.329 23.2753 152.582 26.6093 151.885Z" fill="#E55D83"/>
<path d="M17.735 180.495C17.735 180.495 25.398 161.246 22.566 161.37C19.735 161.495 -1.84399 164.704 0.12701 166.508C2.09801 168.313 14.986 182.507 17.735 180.495Z" fill="#EF9A36"/>
<path d="M23.0753 207.415C23.0753 207.415 20.6213 186.843 18.1923 188.304C15.7643 189.765 -1.66668 202.884 0.926318 203.529C3.52032 204.173 21.6213 210.494 23.0753 207.415Z" fill="#E55D83"/>
<path d="M45.8504 227.61C45.8504 227.61 32.7464 211.562 31.4794 214.098C30.2134 216.633 22.5374 237.054 25.0724 236.208C27.6064 235.361 46.2744 230.989 45.8504 227.61ZM98.1594 117.741C98.1594 117.741 118.347 122.4 117.795 119.62C117.243 116.84 110.811 97.8032 109.325 100.025C107.84 102.246 95.7544 115.329 98.1594 117.741Z" fill="#EF9A36"/>
<path d="M123.498 124.561C123.498 124.561 138.487 138.864 139.43 136.192C140.373 133.519 145.129 112.9 142.719 114.053C140.309 115.205 122.659 121.26 123.498 124.561Z" fill="#E55D83"/>
<path d="M139.422 149.346C139.422 149.346 146.097 168.96 148.169 167.026C150.241 165.092 163.994 149.01 161.324 148.918C158.654 148.826 140.205 146.031 139.422 149.346Z" fill="#EF9A36"/>
<path d="M115.838 143.028C115.456 143.028 115.086 142.824 114.892 142.464C112.757 138.497 107.069 139.077 107.014 139.087C106.738 139.106 106.465 139.018 106.252 138.84C106.039 138.663 105.903 138.41 105.873 138.134C105.842 137.859 105.919 137.582 106.088 137.363C106.256 137.143 106.503 136.996 106.777 136.954C107.072 136.924 113.967 136.222 116.782 141.446C116.87 141.61 116.914 141.793 116.91 141.979C116.905 142.164 116.853 142.345 116.758 142.505C116.663 142.664 116.528 142.796 116.367 142.888C116.206 142.979 116.024 143.028 115.838 143.028ZM103.32 147.319C102.938 147.319 102.568 147.115 102.374 146.754C100.252 142.813 94.5532 143.377 94.4952 143.378C94.355 143.394 94.2132 143.382 94.0777 143.343C93.9423 143.304 93.8159 143.238 93.706 143.15C93.5961 143.061 93.5048 142.952 93.4374 142.828C93.3699 142.704 93.3277 142.568 93.3132 142.428C93.282 142.146 93.3642 141.863 93.5418 141.641C93.7194 141.419 93.9777 141.277 94.2602 141.245C94.5572 141.216 101.451 140.512 104.264 145.738C104.352 145.902 104.396 146.085 104.392 146.27C104.388 146.456 104.335 146.637 104.24 146.796C104.145 146.956 104.01 147.087 103.849 147.179C103.688 147.271 103.506 147.319 103.32 147.319ZM119.771 153.041C119.389 153.041 119.019 152.837 118.825 152.476C116.702 148.533 110.999 149.096 110.946 149.101C110.665 149.13 110.384 149.046 110.164 148.868C109.944 148.69 109.803 148.432 109.772 148.151C109.741 147.87 109.822 147.588 109.998 147.366C110.174 147.145 110.43 147.002 110.711 146.968C111.004 146.933 117.901 146.231 120.715 151.46C120.803 151.624 120.847 151.807 120.843 151.993C120.839 152.178 120.787 152.359 120.692 152.519C120.597 152.678 120.462 152.81 120.301 152.902C120.139 152.993 119.957 153.041 119.771 153.041ZM97.5151 137.943C97.1961 137.943 96.8821 137.803 96.6711 137.532C93.8881 133.99 88.3872 135.535 88.3312 135.552C88.1959 135.592 88.0541 135.605 87.914 135.589C87.7738 135.574 87.6381 135.531 87.5145 135.463C87.391 135.395 87.2822 135.304 87.1942 135.193C87.1063 135.083 87.041 134.957 87.0021 134.821C86.9625 134.686 86.95 134.544 86.9654 134.404C86.9807 134.264 87.0236 134.128 87.0915 134.005C87.1594 133.881 87.2511 133.772 87.3612 133.684C87.4713 133.597 87.5977 133.531 87.7332 133.492C88.0152 133.408 94.6902 131.539 98.3572 136.208C98.4816 136.366 98.559 136.556 98.5806 136.756C98.6022 136.956 98.567 137.158 98.4792 137.339C98.3914 137.52 98.2544 137.673 98.0839 137.78C97.9134 137.886 97.7163 137.943 97.5151 137.943ZM128.034 156.91L127.959 156.908C127.675 156.888 127.411 156.756 127.224 156.542C127.038 156.327 126.944 156.047 126.963 155.763C127.273 151.294 122.156 148.725 122.104 148.7C121.848 148.575 121.653 148.354 121.56 148.085C121.467 147.816 121.485 147.521 121.61 147.265C121.735 147.009 121.956 146.814 122.225 146.721C122.494 146.628 122.789 146.646 123.045 146.771C123.309 146.9 129.516 149.989 129.105 155.912C129.085 156.183 128.964 156.436 128.766 156.621C128.567 156.807 128.306 156.91 128.034 156.91ZM88.5772 91.9242C85.8492 91.9242 47.7012 86.0792 41.2422 82.3432C41.1073 82.3106 40.9779 82.2584 40.8582 82.1882C40.6032 82.0612 40.4332 81.8202 40.3542 81.5452C40.3416 81.5159 40.3323 81.4854 40.3262 81.4542V81.4522C40.3098 81.371 40.3027 81.2881 40.3052 81.2052C40.3052 81.0982 40.3172 80.9922 40.3432 80.8892C40.3502 80.8602 40.3612 80.8272 40.3722 80.7952C40.3952 80.7292 40.4232 80.6662 40.4582 80.6072C40.4697 80.5874 40.482 80.567 40.4952 80.5482C43.2192 75.9432 78.1132 51.5952 82.1892 51.5952C83.0142 51.5952 83.3962 52.0442 83.5502 52.3122C85.2872 55.3362 81.8681 64.0712 81.1651 65.7912C81.1094 65.9285 81.0257 66.0527 80.9193 66.1559C80.8129 66.259 80.6861 66.3388 80.5472 66.3902C69.8032 70.4062 53.8592 76.5442 46.3312 79.8102C56.5902 78.3442 79.3021 73.8642 79.5741 73.8102C79.9691 73.7372 80.3601 73.8762 80.6111 74.1812C92.7471 88.9372 91.2502 90.6812 90.6862 91.3382C90.2662 91.8272 89.5682 91.9242 88.5772 91.9242ZM46.3362 81.9702C56.5252 84.7002 82.0172 89.7792 88.5782 89.7782C88.6852 89.7782 88.7781 89.7772 88.8591 89.7742C88.2391 87.7002 83.7271 81.3952 79.3601 76.0392C75.4681 76.8042 55.7472 80.6522 46.3362 81.9702ZM81.8412 53.7872C77.7372 54.7092 56.9812 69.3612 47.3092 77.0852C55.0072 73.7682 67.8971 68.8312 79.3521 64.5472C80.7761 60.9492 82.3062 55.7362 81.8412 53.7872Z" fill="#241726"/>
<path d="M83.5539 80.8093C83.2769 80.801 83.0138 80.686 82.8196 80.4883C82.6255 80.2905 82.5153 80.0254 82.512 79.7483C82.5088 79.4712 82.6128 79.2036 82.8023 79.0014C82.9918 78.7992 83.2521 78.6781 83.5289 78.6633C86.5689 78.5913 89.6459 78.1333 90.5209 77.6493C89.7289 76.2303 84.4239 70.8603 79.6819 66.4773C79.479 66.2827 79.3605 66.0163 79.3521 65.7353C79.3436 65.4544 79.4457 65.1813 79.6364 64.9748C79.8272 64.7683 80.0914 64.6449 80.3721 64.6312C80.6529 64.6175 80.9279 64.7145 81.1379 64.9013C86.3999 69.7643 92.6859 75.9403 92.7489 77.7553C92.7599 78.0713 92.6849 78.5433 92.2599 78.9933C90.8589 80.4793 85.7229 80.7583 83.5789 80.8093H83.5539ZM191.457 130.232H191.425C189.942 130.193 188.465 130.033 187.008 129.753C186.729 129.699 186.482 129.535 186.324 129.299C186.165 129.063 186.106 128.774 186.161 128.494C186.274 127.913 186.831 127.529 187.42 127.647C188.691 127.896 190.059 128.044 191.487 128.086C191.771 128.09 192.043 128.207 192.241 128.411C192.44 128.615 192.549 128.89 192.545 129.174C192.541 129.459 192.424 129.73 192.22 129.929C192.016 130.127 191.741 130.236 191.457 130.232ZM195.741 130.076C195.464 130.079 195.196 129.974 194.995 129.784C194.793 129.593 194.673 129.332 194.66 129.055C194.647 128.779 194.741 128.507 194.924 128.299C195.106 128.09 195.363 127.96 195.639 127.936C197.029 127.799 198.413 127.597 199.785 127.332C199.923 127.305 200.066 127.306 200.204 127.334C200.343 127.363 200.474 127.418 200.591 127.497C200.708 127.576 200.808 127.678 200.886 127.796C200.963 127.914 201.017 128.046 201.043 128.185C201.07 128.323 201.069 128.466 201.04 128.604C201.011 128.742 200.955 128.874 200.876 128.99C200.796 129.107 200.694 129.207 200.576 129.284C200.458 129.361 200.326 129.414 200.187 129.44C198.687 129.726 197.226 129.939 195.844 130.071C195.81 130.075 195.775 130.077 195.741 130.076ZM183.137 128.534C182.992 128.535 182.85 128.505 182.717 128.448C181.327 127.857 180.011 127.105 178.796 126.206C178.567 126.037 178.416 125.783 178.374 125.501C178.332 125.22 178.404 124.933 178.573 124.704C178.743 124.477 178.997 124.326 179.278 124.284C179.559 124.243 179.846 124.313 180.075 124.481C181.154 125.28 182.323 125.949 183.558 126.474C183.785 126.571 183.972 126.744 184.087 126.963C184.202 127.182 184.238 127.434 184.188 127.676C184.139 127.918 184.007 128.136 183.815 128.293C183.624 128.449 183.384 128.534 183.137 128.534ZM176.313 123.501C176.012 123.501 175.713 123.375 175.501 123.129C174.531 121.995 173.662 120.777 172.906 119.49C172.765 119.246 172.726 118.956 172.798 118.683C172.87 118.41 173.046 118.176 173.289 118.032C173.532 117.888 173.821 117.846 174.095 117.914C174.369 117.982 174.605 118.155 174.752 118.396C175.444 119.574 176.238 120.688 177.125 121.727C177.26 121.883 177.347 122.074 177.376 122.277C177.405 122.481 177.375 122.688 177.289 122.875C177.204 123.062 177.066 123.221 176.893 123.332C176.72 123.443 176.519 123.502 176.313 123.501ZM171.899 116.189C171.483 116.189 171.088 115.947 170.913 115.54C170.337 114.196 169.821 112.826 169.365 111.436C169.319 111.302 169.301 111.16 169.31 111.019C169.319 110.878 169.357 110.74 169.42 110.613C169.483 110.486 169.57 110.373 169.677 110.28C169.784 110.187 169.909 110.116 170.043 110.072C170.177 110.027 170.319 110.01 170.461 110.02C170.602 110.031 170.74 110.069 170.866 110.133C170.992 110.198 171.105 110.286 171.197 110.394C171.289 110.502 171.358 110.626 171.402 110.761C171.878 112.197 172.362 113.483 172.882 114.691C172.953 114.854 172.982 115.033 172.967 115.21C172.952 115.387 172.893 115.558 172.796 115.706C172.698 115.855 172.565 115.977 172.408 116.061C172.252 116.146 172.077 116.19 171.899 116.189ZM169.156 108.054C168.683 108.054 168.251 107.74 168.121 107.261C167.748 105.867 167.395 104.468 167.064 103.063C167.006 102.789 167.057 102.504 167.206 102.267C167.356 102.03 167.592 101.861 167.865 101.796C168.137 101.732 168.424 101.776 168.665 101.92C168.905 102.063 169.079 102.296 169.151 102.566C169.48 103.947 169.823 105.331 170.194 106.702C170.237 106.862 170.242 107.028 170.21 107.19C170.178 107.352 170.109 107.504 170.008 107.634C169.908 107.765 169.779 107.871 169.631 107.944C169.483 108.017 169.321 108.054 169.156 108.054ZM167.133 99.7023C166.646 99.7023 166.204 99.3683 166.089 98.8723C165.769 97.4825 165.437 96.0958 165.091 94.7123C165.021 94.4365 165.064 94.1443 165.21 93.9C165.355 93.6556 165.592 93.4791 165.868 93.4093C166.144 93.341 166.435 93.3843 166.679 93.5298C166.923 93.6753 167.1 93.9112 167.171 94.1863C167.52 95.5827 167.856 96.9824 168.178 98.3853C168.215 98.5428 168.216 98.7065 168.18 98.8644C168.145 99.0222 168.075 99.17 167.974 99.2966C167.873 99.4233 167.746 99.5256 167.6 99.5959C167.454 99.6661 167.295 99.7025 167.133 99.7023ZM136.756 92.3373C136.533 92.3378 136.315 92.2688 136.133 92.1398C135.951 92.0108 135.814 91.8283 135.741 91.6176C135.668 91.407 135.662 91.1787 135.724 90.9647C135.787 90.7506 135.915 90.5614 136.09 90.4233C136.743 89.9063 137.304 88.7623 137.63 87.2843C137.66 87.1468 137.717 87.0165 137.798 86.901C137.878 86.7855 137.981 86.687 138.1 86.6111C138.218 86.5353 138.351 86.4835 138.489 86.4588C138.628 86.4342 138.77 86.4371 138.908 86.4673C139.045 86.4976 139.176 86.5547 139.291 86.6353C139.407 86.7159 139.505 86.8184 139.581 86.9371C139.657 87.0558 139.709 87.1882 139.733 87.3269C139.758 87.4656 139.755 87.6078 139.725 87.7453C139.282 89.7573 138.485 91.2643 137.42 92.1063C137.231 92.256 136.997 92.3374 136.756 92.3373ZM132.966 91.6143C132.812 91.6144 132.661 91.5815 132.521 91.5178C132.382 91.4542 132.257 91.3612 132.157 91.2453C131.458 90.4423 131.087 89.4363 131.086 88.3363C131.086 87.6313 131.235 86.8843 131.527 86.1153C131.577 85.9837 131.652 85.8632 131.749 85.7607C131.846 85.6583 131.962 85.5758 132.09 85.5182C132.219 85.4605 132.357 85.4287 132.498 85.4246C132.639 85.4205 132.779 85.4442 132.911 85.4943C133.043 85.5444 133.163 85.62 133.265 85.7166C133.368 85.8133 133.45 85.9292 133.508 86.0577C133.566 86.1862 133.597 86.3248 133.602 86.4656C133.606 86.6064 133.582 86.7467 133.532 86.8783C133.333 87.4033 133.231 87.8933 133.231 88.3353C133.232 88.9263 133.409 89.4173 133.774 89.8363C133.867 89.9424 133.937 90.0658 133.982 90.1994C134.027 90.3329 134.045 90.4741 134.036 90.6146C134.026 90.7552 133.989 90.8925 133.926 91.0186C133.863 91.1447 133.775 91.2571 133.669 91.3493C133.475 91.5207 133.225 91.615 132.966 91.6143ZM164.978 91.3833C164.521 91.3833 164.098 91.0903 163.954 90.6323C163.484 89.1323 163.011 87.8513 162.51 86.7163C162.45 86.5869 162.416 86.4468 162.41 86.3041C162.405 86.1614 162.428 86.0191 162.478 85.8854C162.528 85.7517 162.605 85.6295 162.703 85.5257C162.801 85.422 162.919 85.3388 163.049 85.2812C163.18 85.2236 163.321 85.1926 163.463 85.1901C163.606 85.1876 163.748 85.2136 163.881 85.2666C164.013 85.3196 164.134 85.3985 164.236 85.4988C164.337 85.599 164.418 85.7185 164.473 85.8503C165.006 87.0583 165.505 88.4123 166.001 89.9883C166.051 90.149 166.063 90.3193 166.036 90.4855C166.008 90.6517 165.942 90.809 165.843 90.9449C165.743 91.0807 165.613 91.1912 165.463 91.2673C165.312 91.3435 165.146 91.3832 164.978 91.3833ZM139.01 84.3183C138.733 84.3181 138.467 84.211 138.268 84.0194C138.068 83.8279 137.95 83.5667 137.939 83.2903C137.918 82.7913 137.877 82.2903 137.816 81.7913C137.051 82.3627 136.335 82.9972 135.677 83.6883C135.478 83.8811 135.212 83.9896 134.935 83.9911C134.658 83.9926 134.391 83.887 134.19 83.6963C133.989 83.5056 133.87 83.2447 133.857 82.968C133.843 82.6912 133.938 82.4201 134.12 82.2113C135.11 81.1786 136.208 80.2546 137.395 79.4553L137.348 79.2673C137.313 79.1307 137.306 78.9887 137.326 78.8493C137.347 78.7099 137.394 78.5759 137.466 78.4549C137.539 78.3339 137.634 78.2283 137.747 78.1441C137.86 78.06 137.988 77.9989 138.125 77.9643C138.261 77.9298 138.403 77.9225 138.543 77.9428C138.682 77.9632 138.816 78.0108 138.937 78.083C139.058 78.1551 139.164 78.2504 139.248 78.3634C139.332 78.4763 139.393 78.6047 139.428 78.7413C139.799 80.2113 140.019 81.7103 140.082 83.1993C140.094 83.4836 139.992 83.761 139.8 83.9705C139.607 84.18 139.339 84.3044 139.055 84.3163C139.042 84.3183 139.026 84.3183 139.01 84.3183ZM161.397 83.6263C161.067 83.6263 160.741 83.4743 160.53 83.1883C160.004 82.4611 159.393 81.7997 158.71 81.2183C158.391 80.9518 158.061 80.6976 157.723 80.4563C157.491 80.2915 157.334 80.0412 157.286 79.7606C157.239 79.4799 157.305 79.1919 157.469 78.9598C157.634 78.7278 157.884 78.5707 158.165 78.5231C158.446 78.4756 158.734 78.5415 158.966 78.7063C159.343 78.9743 159.716 79.2613 160.086 79.5703C160.902 80.2625 161.633 81.0505 162.261 81.9173C162.378 82.0772 162.449 82.2665 162.465 82.4641C162.481 82.6617 162.443 82.8599 162.353 83.0369C162.264 83.2138 162.127 83.3626 161.958 83.4666C161.789 83.5706 161.595 83.6259 161.397 83.6263ZM141.983 79.2793C141.734 79.28 141.493 79.1942 141.3 79.0364C141.108 78.8786 140.976 78.6588 140.928 78.4146C140.88 78.1705 140.918 77.9171 141.036 77.6981C141.155 77.4791 141.345 77.3081 141.576 77.2143C142.969 76.6398 144.419 76.2131 145.902 75.9413C146.177 75.903 146.455 75.9724 146.68 76.135C146.905 76.2976 147.058 76.5409 147.107 76.8138C147.157 77.0868 147.098 77.3683 146.945 77.5993C146.792 77.8303 146.555 77.993 146.284 78.0533C144.983 78.2883 143.673 78.6733 142.391 79.1983C142.261 79.2516 142.123 79.2791 141.983 79.2793ZM154.556 78.6723C154.436 78.6723 154.315 78.6523 154.197 78.6103C152.94 78.1654 151.627 77.8965 150.296 77.8113C150.012 77.7926 149.747 77.6619 149.559 77.4479C149.372 77.234 149.276 76.9543 149.295 76.6703C149.334 76.0783 149.858 75.6523 150.436 75.6693C151.981 75.7713 153.489 76.0803 154.915 76.5883C155.153 76.673 155.354 76.8392 155.482 77.0575C155.609 77.2758 155.656 77.5322 155.613 77.7815C155.57 78.0307 155.44 78.2568 155.247 78.4198C155.054 78.5828 154.809 78.6722 154.556 78.6723ZM136.916 76.0553C136.52 76.0553 136.139 75.8363 135.953 75.4583C135.358 74.249 134.623 73.1142 133.763 72.0773C133.673 71.9692 133.604 71.8443 133.562 71.7098C133.52 71.5754 133.505 71.434 133.518 71.2937C133.531 71.1533 133.571 71.0169 133.636 70.8921C133.701 70.7673 133.791 70.6566 133.899 70.5663C134.007 70.476 134.132 70.4079 134.266 70.3659C134.401 70.3239 134.542 70.3088 134.683 70.3214C134.823 70.334 134.959 70.3742 135.084 70.4395C135.209 70.5049 135.32 70.5942 135.41 70.7023C136.379 71.8688 137.207 73.1456 137.876 74.5063C137.956 74.6698 137.994 74.8511 137.985 75.0332C137.977 75.2153 137.922 75.3921 137.826 75.5471C137.729 75.702 137.596 75.83 137.436 75.9189C137.277 76.0078 137.098 76.0548 136.916 76.0553ZM95.6239 73.7513C95.4221 73.7512 95.2244 73.6942 95.0535 73.5867C94.8827 73.4793 94.7456 73.3259 94.6579 73.1441C94.5703 72.9623 94.5358 72.7595 94.5582 72.559C94.5807 72.3584 94.6592 72.1683 94.7849 72.0103C94.8309 71.9523 95.9409 70.5793 98.2209 68.9683C98.3358 68.8867 98.4657 68.8286 98.6031 68.7973C98.7406 68.766 98.8828 68.7622 99.0218 68.7861C99.1607 68.81 99.2935 68.8611 99.4126 68.9365C99.5318 69.0118 99.6348 69.11 99.7159 69.2253C99.7974 69.3403 99.8554 69.4702 99.8866 69.6076C99.9178 69.7451 99.9215 69.8873 99.8976 70.0262C99.8738 70.165 99.8227 70.2979 99.7474 70.417C99.6721 70.5361 99.5741 70.6392 99.4589 70.7203C97.4479 72.1403 96.4689 73.3393 96.4589 73.3513C96.2489 73.6143 95.9379 73.7513 95.6239 73.7513ZM131.446 69.5553C131.231 69.5553 131.013 69.4903 130.825 69.3563C129.73 68.581 128.543 67.9454 127.291 67.4643C127.159 67.4136 127.039 67.3374 126.937 67.2403C126.835 67.1431 126.754 67.0268 126.697 66.898C126.64 66.7692 126.609 66.6304 126.605 66.4896C126.602 66.3488 126.626 66.2087 126.677 66.0773C126.728 65.9459 126.804 65.8258 126.901 65.7239C126.998 65.6219 127.114 65.5401 127.243 65.4831C127.372 65.4261 127.511 65.395 127.652 65.3916C127.792 65.3882 127.932 65.4126 128.064 65.4633C129.483 66.0089 130.829 66.7298 132.07 67.6093C132.255 67.7415 132.393 67.929 132.465 68.1448C132.536 68.3606 132.537 68.5935 132.468 68.81C132.398 69.0264 132.262 69.2153 132.078 69.3492C131.895 69.4832 131.673 69.5554 131.446 69.5553ZM102.546 68.7563C102.302 68.7573 102.065 68.6752 101.874 68.5234C101.683 68.3716 101.55 68.1593 101.496 67.9215C101.442 67.6837 101.471 67.4345 101.577 67.2153C101.684 66.996 101.862 66.8196 102.083 66.7153C103.424 66.0772 104.812 65.5413 106.234 65.1123C106.506 65.0298 106.8 65.0589 107.051 65.1932C107.302 65.3275 107.489 65.5559 107.572 65.8283C107.654 66.1007 107.625 66.3947 107.491 66.6456C107.357 66.8965 107.128 67.0838 106.856 67.1663C105.537 67.5642 104.251 68.0609 103.007 68.6523C102.858 68.7223 102.701 68.7563 102.546 68.7563ZM123.54 66.4423C123.481 66.4428 123.421 66.4377 123.363 66.4273C121.985 66.1976 120.596 66.0314 119.203 65.9293C119.062 65.9194 118.925 65.8819 118.799 65.8189C118.673 65.756 118.561 65.6688 118.469 65.5623C118.376 65.4559 118.306 65.3323 118.262 65.1986C118.217 65.0649 118.2 64.9238 118.21 64.7833C118.219 64.6426 118.256 64.5052 118.319 64.3789C118.382 64.2527 118.469 64.1402 118.576 64.0478C118.682 63.9555 118.806 63.8852 118.94 63.841C119.074 63.7968 119.215 63.7796 119.356 63.7903C120.784 63.8923 122.25 64.0683 123.715 64.3113C123.982 64.3533 124.224 64.4948 124.391 64.7075C124.559 64.9202 124.639 65.1884 124.617 65.4581C124.595 65.7278 124.472 65.9792 124.272 66.1618C124.072 66.3443 123.81 66.4445 123.54 66.4423ZM110.723 66.2583C110.452 66.2599 110.19 66.1588 109.991 65.9753C109.792 65.7919 109.669 65.5397 109.648 65.2696C109.627 64.9994 109.709 64.7313 109.878 64.5192C110.046 64.3071 110.289 64.1667 110.557 64.1263C112.013 63.8975 113.482 63.7576 114.955 63.7073C115.238 63.7007 115.513 63.8052 115.72 63.9985C115.927 64.1917 116.051 64.4583 116.064 64.7413C116.069 64.8821 116.046 65.0224 115.997 65.1544C115.948 65.2863 115.873 65.4073 115.777 65.5103C115.681 65.6133 115.565 65.6964 115.437 65.7547C115.309 65.8131 115.171 65.8455 115.03 65.8503C113.621 65.9003 112.228 66.0323 110.892 66.2443C110.836 66.2539 110.779 66.2586 110.723 66.2583Z" fill="#241726"/>
<path d="M48.5919 348.117C48.5919 348.117 107.126 322.599 129.967 353.833C152.807 385.067 120.916 419.167 99.8999 422.763C78.8839 426.359 111.616 432.128 104.479 438.738C97.3409 445.349 37.7639 450.964 20.8829 414.428C4.00194 377.892 24.0389 355.639 48.5919 348.117Z" fill="#EF9A36"/>
<path d="M53.1313 393.459C54.3569 388.268 51.143 383.067 45.9529 381.842C40.7628 380.616 35.5618 383.83 34.3363 389.02C33.1107 394.211 36.3246 399.411 41.5148 400.637C46.7049 401.863 51.9058 398.649 53.1313 393.459Z" fill="#FDFFFF"/>
<path d="M84.2408 385.949C85.4663 380.759 82.2524 375.558 77.0623 374.332C71.8721 373.107 66.6712 376.321 65.4456 381.511C64.2201 386.701 67.434 391.902 72.6241 393.127C77.8143 394.353 83.0152 391.139 84.2408 385.949Z" fill="#FDFFFF"/>
<path d="M113.484 372.964C113.484 375.525 112.467 377.981 110.656 379.792C108.845 381.603 106.389 382.62 103.828 382.62C102.56 382.62 101.304 382.37 100.133 381.885C98.9612 381.4 97.8967 380.689 97.0001 379.792C96.1034 378.895 95.3922 377.831 94.9069 376.659C94.4216 375.488 94.1719 374.232 94.1719 372.964C94.1719 371.696 94.4216 370.44 94.9069 369.269C95.3922 368.097 96.1034 367.033 97.0001 366.136C97.8967 365.24 98.9612 364.528 100.133 364.043C101.304 363.558 102.56 363.308 103.828 363.308C106.389 363.308 108.845 364.325 110.656 366.136C112.467 367.947 113.484 370.403 113.484 372.964Z" fill="#FDFFFF"/>
<path d="M321.368 320.186C321.225 320.186 321.079 320.158 320.938 320.096C320.873 320.068 319.321 319.384 317.013 318.028C316.78 317.878 316.614 317.644 316.55 317.374C316.486 317.104 316.529 316.82 316.669 316.581C316.81 316.342 317.037 316.167 317.304 316.092C317.571 316.017 317.857 316.048 318.101 316.178C320.29 317.465 321.785 318.125 321.8 318.131C322.026 318.23 322.212 318.403 322.325 318.622C322.438 318.842 322.472 319.093 322.422 319.335C322.371 319.576 322.238 319.793 322.046 319.948C321.854 320.103 321.615 320.187 321.368 320.186ZM313.939 315.851C313.726 315.851 313.511 315.788 313.324 315.657C312.126 314.818 310.963 313.929 309.838 312.994C309.629 312.809 309.5 312.55 309.479 312.271C309.458 311.993 309.546 311.717 309.725 311.502C309.904 311.288 310.16 311.152 310.437 311.122C310.715 311.093 310.993 311.173 311.213 311.345C312.291 312.243 313.406 313.095 314.556 313.899C314.743 314.031 314.882 314.218 314.955 314.434C315.028 314.65 315.03 314.884 314.962 315.101C314.893 315.318 314.757 315.508 314.573 315.643C314.389 315.778 314.167 315.851 313.939 315.851ZM307.358 310.343C307.216 310.343 307.076 310.315 306.945 310.261C306.814 310.206 306.696 310.126 306.596 310.025C305.559 308.983 304.579 307.884 303.661 306.735C303.497 306.512 303.426 306.233 303.463 305.958C303.499 305.683 303.641 305.433 303.858 305.26C304.075 305.087 304.351 305.005 304.627 305.031C304.903 305.057 305.159 305.188 305.34 305.398C306.21 306.487 307.138 307.527 308.12 308.514C308.269 308.665 308.371 308.856 308.412 309.064C308.452 309.272 308.431 309.487 308.349 309.683C308.268 309.879 308.13 310.046 307.954 310.163C307.777 310.281 307.57 310.343 307.358 310.343ZM302.042 303.625C301.68 303.625 301.326 303.442 301.124 303.11C300.353 301.845 299.674 300.525 299.091 299.162C299.036 299.033 299.006 298.893 299.005 298.753C299.004 298.612 299.03 298.472 299.083 298.341C299.135 298.21 299.213 298.091 299.312 297.991C299.411 297.89 299.528 297.81 299.658 297.755C299.788 297.7 299.927 297.67 300.068 297.669C300.209 297.667 300.349 297.694 300.479 297.746C300.61 297.799 300.729 297.877 300.83 297.976C300.93 298.075 301.01 298.192 301.065 298.322C301.607 299.59 302.24 300.818 302.957 301.996C303.056 302.159 303.109 302.345 303.112 302.535C303.115 302.725 303.068 302.912 302.975 303.078C302.882 303.243 302.746 303.381 302.583 303.478C302.419 303.574 302.232 303.625 302.042 303.625ZM298.716 295.752C298.235 295.752 297.797 295.426 297.676 294.937C297.318 293.492 297.08 292.02 296.964 290.536C296.942 290.253 297.034 289.972 297.219 289.756C297.403 289.539 297.666 289.405 297.95 289.382C298.233 289.363 298.513 289.455 298.728 289.64C298.944 289.824 299.079 290.086 299.104 290.368C299.21 291.729 299.431 293.092 299.76 294.421C299.8 294.58 299.802 294.745 299.768 294.904C299.734 295.064 299.664 295.214 299.563 295.342C299.463 295.47 299.334 295.574 299.187 295.645C299.04 295.716 298.879 295.753 298.716 295.752ZM298.044 287.239C297.896 287.239 297.749 287.208 297.613 287.149C297.478 287.089 297.355 287.002 297.255 286.894C297.154 286.785 297.077 286.656 297.029 286.516C296.98 286.376 296.961 286.227 296.973 286.079C297.09 284.634 297.32 283.158 297.655 281.691C297.687 281.554 297.745 281.424 297.826 281.309C297.908 281.194 298.011 281.097 298.13 281.022C298.25 280.947 298.383 280.896 298.522 280.872C298.661 280.849 298.803 280.853 298.94 280.884C299.077 280.916 299.207 280.974 299.322 281.055C299.437 281.137 299.535 281.24 299.61 281.36C299.685 281.479 299.735 281.612 299.759 281.751C299.783 281.89 299.778 282.032 299.747 282.169C299.439 283.514 299.227 284.879 299.113 286.253C299.091 286.522 298.969 286.772 298.771 286.954C298.573 287.137 298.313 287.239 298.044 287.239ZM299.921 278.891C299.749 278.891 299.579 278.85 299.425 278.77C299.272 278.691 299.141 278.575 299.042 278.434C298.943 278.293 298.879 278.13 298.857 277.958C298.835 277.787 298.854 277.613 298.913 277.451C299.417 276.072 299.993 274.72 300.639 273.401C300.764 273.146 300.985 272.95 301.254 272.858C301.523 272.765 301.818 272.783 302.073 272.908C302.329 273.033 302.524 273.254 302.617 273.523C302.709 273.792 302.691 274.087 302.566 274.342C301.954 275.594 301.407 276.876 300.928 278.184C300.853 278.391 300.717 278.57 300.536 278.697C300.356 278.824 300.141 278.891 299.921 278.891ZM345.894 272.48C344.598 272.48 343.388 271.715 342.297 270.206C342.136 269.975 342.072 269.69 342.119 269.413C342.165 269.135 342.32 268.887 342.548 268.722C342.776 268.557 343.06 268.488 343.339 268.531C343.617 268.573 343.868 268.724 344.036 268.949C344.846 270.07 345.585 270.552 346.334 270.24C346.597 270.133 346.893 270.134 347.155 270.243C347.418 270.353 347.626 270.562 347.735 270.824C347.843 271.088 347.842 271.383 347.733 271.646C347.623 271.908 347.414 272.117 347.151 272.225C346.753 272.392 346.326 272.478 345.894 272.48ZM303.664 271.186C303.473 271.186 303.286 271.135 303.121 271.038C302.957 270.941 302.821 270.802 302.728 270.635C302.636 270.468 302.589 270.28 302.593 270.089C302.597 269.898 302.652 269.712 302.752 269.549C303.527 268.294 304.379 267.088 305.303 265.938C305.392 265.829 305.501 265.737 305.625 265.67C305.748 265.603 305.884 265.56 306.024 265.545C306.164 265.53 306.306 265.543 306.441 265.583C306.576 265.623 306.702 265.689 306.812 265.777C306.922 265.866 307.013 265.975 307.08 266.099C307.148 266.223 307.19 266.358 307.205 266.498C307.22 266.639 307.207 266.78 307.167 266.915C307.128 267.051 307.062 267.177 306.973 267.286C306.105 268.367 305.305 269.5 304.577 270.679C304.481 270.834 304.346 270.962 304.186 271.051C304.027 271.14 303.847 271.186 303.664 271.186ZM349.456 269.222C349.303 269.223 349.152 269.19 349.013 269.127C348.874 269.065 348.75 268.973 348.649 268.858C348.548 268.743 348.473 268.608 348.429 268.462C348.384 268.316 348.372 268.162 348.392 268.01C348.405 267.912 348.411 267.813 348.411 267.714C348.411 266.894 347.98 265.924 347.166 264.911C347.003 264.688 346.931 264.411 346.967 264.137C347.003 263.863 347.144 263.613 347.359 263.439C347.575 263.266 347.849 263.183 348.124 263.206C348.4 263.23 348.655 263.359 348.838 263.566C349.978 264.984 350.556 266.379 350.556 267.713C350.556 267.907 350.544 268.099 350.518 268.288C350.485 268.547 350.359 268.784 350.163 268.956C349.968 269.128 349.716 269.222 349.456 269.222ZM341.265 266.818C340.825 266.818 340.413 266.546 340.255 266.109C339.763 264.716 339.36 263.293 339.047 261.849C338.992 261.574 339.047 261.288 339.201 261.053C339.354 260.818 339.594 260.652 339.868 260.591C340.142 260.531 340.429 260.58 340.667 260.729C340.905 260.877 341.076 261.113 341.142 261.386C341.435 262.741 341.813 264.076 342.275 265.382C342.333 265.544 342.351 265.718 342.328 265.888C342.305 266.059 342.241 266.221 342.142 266.362C342.043 266.502 341.912 266.617 341.759 266.697C341.607 266.776 341.437 266.818 341.265 266.818ZM413.118 265.033C413.086 265.033 413.053 265.032 413.021 265.029C411.525 264.885 410.048 264.592 408.61 264.154C408.475 264.114 408.349 264.048 408.24 263.959C408.131 263.87 408.04 263.761 407.973 263.637C407.906 263.513 407.864 263.377 407.849 263.237C407.835 263.097 407.848 262.955 407.888 262.82C407.928 262.685 407.995 262.56 408.083 262.45C408.172 262.341 408.282 262.25 408.406 262.183C408.529 262.116 408.665 262.074 408.805 262.059C408.946 262.045 409.087 262.058 409.222 262.098C410.609 262.511 411.952 262.778 413.214 262.891C413.49 262.915 413.746 263.045 413.928 263.253C414.111 263.461 414.206 263.732 414.194 264.008C414.181 264.285 414.062 264.546 413.862 264.737C413.661 264.928 413.395 265.034 413.118 265.033ZM417.365 264.847C417.098 264.847 416.841 264.748 416.643 264.568C416.445 264.388 416.322 264.141 416.297 263.875C416.272 263.609 416.347 263.344 416.507 263.13C416.667 262.916 416.902 262.77 417.164 262.72C418.45 262.474 419.689 262.024 420.833 261.387C421.081 261.259 421.369 261.232 421.636 261.313C421.904 261.393 422.129 261.575 422.265 261.819C422.4 262.063 422.435 262.35 422.363 262.62C422.29 262.889 422.115 263.12 421.875 263.262C420.532 264.01 419.079 264.538 417.569 264.827C417.502 264.84 417.434 264.847 417.365 264.847ZM309.054 264.543C308.839 264.543 308.628 264.479 308.45 264.357C308.272 264.236 308.134 264.064 308.055 263.864C307.976 263.663 307.96 263.443 308.007 263.233C308.055 263.023 308.164 262.832 308.322 262.685C309.409 261.67 310.573 260.742 311.804 259.908C312.04 259.75 312.33 259.691 312.609 259.745C312.888 259.799 313.134 259.962 313.294 260.197C313.453 260.433 313.512 260.723 313.458 261.002C313.404 261.281 313.241 261.528 313.005 261.687C311.867 262.458 310.79 263.317 309.785 264.254C309.587 264.44 309.326 264.544 309.054 264.543ZM404.892 262.738C404.749 262.738 404.603 262.71 404.464 262.648C403.101 262.06 401.791 261.357 400.547 260.546C400.32 260.385 400.165 260.142 400.113 259.868C400.062 259.595 400.119 259.312 400.273 259.079C400.426 258.847 400.663 258.683 400.935 258.623C401.207 258.562 401.492 258.609 401.729 258.754C402.87 259.498 404.073 260.143 405.323 260.682C405.55 260.78 405.736 260.954 405.85 261.173C405.963 261.392 405.998 261.644 405.947 261.886C405.896 262.128 405.764 262.345 405.571 262.5C405.379 262.656 405.139 262.74 404.892 262.738ZM344.826 262.44C344.613 262.44 344.4 262.377 344.212 262.246C343.085 261.466 341.894 260.784 340.651 260.206C340.405 260.078 340.218 259.86 340.129 259.597C340.04 259.334 340.056 259.047 340.175 258.796C340.293 258.545 340.504 258.349 340.763 258.25C341.022 258.151 341.31 258.156 341.565 258.264C342.919 258.894 344.216 259.638 345.443 260.488C345.631 260.619 345.772 260.806 345.846 261.023C345.919 261.239 345.922 261.473 345.853 261.691C345.784 261.909 345.647 262.1 345.463 262.234C345.278 262.369 345.055 262.441 344.826 262.44ZM424.755 260.829C424.542 260.829 424.334 260.766 424.157 260.647C423.98 260.528 423.842 260.359 423.762 260.161C423.681 259.964 423.662 259.747 423.705 259.538C423.748 259.329 423.853 259.138 424.005 258.989C424.907 258.107 425.789 257.055 426.628 255.86C426.795 255.637 427.043 255.487 427.318 255.443C427.594 255.398 427.876 255.463 428.104 255.624C428.333 255.784 428.49 256.027 428.542 256.301C428.594 256.575 428.538 256.859 428.384 257.092C427.47 258.394 426.501 259.549 425.506 260.522C425.296 260.727 425.025 260.829 424.755 260.829ZM316.142 259.77C315.898 259.769 315.661 259.685 315.471 259.532C315.281 259.379 315.149 259.165 315.097 258.926C315.044 258.688 315.075 258.438 315.183 258.219C315.292 258.001 315.472 257.825 315.693 257.722C317.047 257.102 318.449 256.594 319.886 256.201C320.161 256.128 320.453 256.165 320.7 256.306C320.947 256.447 321.128 256.68 321.204 256.953C321.279 257.228 321.242 257.521 321.101 257.768C320.96 258.015 320.727 258.196 320.452 258.271C319.128 258.632 317.836 259.101 316.588 259.673C316.448 259.737 316.296 259.77 316.142 259.77ZM337.104 258.764C336.999 258.764 336.892 258.748 336.787 258.716C335.465 258.308 334.117 257.987 332.753 257.755C332.614 257.732 332.481 257.681 332.362 257.606C332.242 257.531 332.139 257.434 332.057 257.319C331.976 257.204 331.918 257.074 331.886 256.937C331.855 256.799 331.851 256.657 331.874 256.518C331.974 255.933 332.532 255.551 333.111 255.639C334.57 255.887 336.02 256.232 337.421 256.667C337.667 256.743 337.877 256.904 338.014 257.121C338.151 257.339 338.206 257.598 338.167 257.853C338.129 258.107 338 258.339 337.805 258.506C337.61 258.673 337.361 258.765 337.104 258.764ZM339.362 258.459C338.831 258.459 338.37 258.065 338.3 257.524C338.113 256.078 337.98 254.625 337.902 253.169C337.887 252.885 337.985 252.607 338.175 252.395C338.366 252.183 338.632 252.055 338.916 252.039C339.497 251.988 340.012 252.46 340.045 253.053C340.122 254.475 340.25 255.886 340.426 257.247C340.446 257.399 340.434 257.553 340.389 257.699C340.345 257.845 340.27 257.98 340.169 258.095C340.068 258.21 339.944 258.302 339.805 258.364C339.666 258.427 339.515 258.46 339.362 258.459ZM397.866 258.002C397.581 258.002 397.297 257.889 397.085 257.666C396.044 256.56 395.151 255.323 394.429 253.986C394.362 253.862 394.32 253.726 394.306 253.586C394.292 253.446 394.305 253.305 394.346 253.17C394.386 253.035 394.453 252.909 394.542 252.8C394.631 252.691 394.74 252.6 394.864 252.533C394.988 252.466 395.124 252.425 395.264 252.41C395.404 252.396 395.546 252.409 395.681 252.45C395.816 252.49 395.941 252.557 396.05 252.646C396.16 252.735 396.25 252.844 396.317 252.968C396.948 254.141 397.731 255.226 398.646 256.193C398.79 256.346 398.886 256.537 398.922 256.743C398.958 256.949 398.934 257.162 398.851 257.354C398.768 257.546 398.63 257.71 398.455 257.826C398.28 257.941 398.076 258.002 397.866 258.002ZM324.379 257.504C324.108 257.5 323.848 257.392 323.653 257.204C323.457 257.016 323.34 256.761 323.325 256.49C323.31 256.219 323.398 255.953 323.572 255.744C323.745 255.535 323.991 255.4 324.26 255.365C325.735 255.2 327.22 255.143 328.703 255.194C329.295 255.214 329.758 255.711 329.737 256.304C329.717 256.897 329.26 257.412 328.627 257.338C327.249 257.29 325.869 257.343 324.499 257.498C324.459 257.502 324.419 257.504 324.379 257.504ZM429.741 253.889C429.556 253.889 429.373 253.841 429.212 253.749C429.051 253.658 428.916 253.526 428.821 253.366C428.726 253.207 428.674 253.026 428.669 252.84C428.665 252.655 428.709 252.472 428.797 252.308C429.46 251.068 430.076 249.804 430.643 248.517C430.764 248.266 430.978 248.071 431.241 247.974C431.503 247.878 431.792 247.888 432.047 248.001C432.303 248.114 432.504 248.323 432.608 248.582C432.712 248.841 432.711 249.131 432.605 249.389C432.016 250.725 431.376 252.037 430.688 253.324C430.596 253.495 430.459 253.638 430.293 253.738C430.126 253.837 429.935 253.89 429.741 253.889ZM393.794 250.581C393.326 250.581 392.895 250.272 392.762 249.798C392.401 248.51 392.112 247.09 391.882 245.456C391.842 245.174 391.916 244.889 392.088 244.661C392.259 244.434 392.513 244.284 392.795 244.244C392.935 244.223 393.077 244.23 393.214 244.265C393.351 244.3 393.48 244.361 393.593 244.446C393.706 244.531 393.8 244.638 393.871 244.76C393.943 244.882 393.989 245.017 394.007 245.157C394.224 246.695 394.492 248.024 394.828 249.218C394.873 249.378 394.88 249.546 394.849 249.708C394.818 249.871 394.75 250.025 394.65 250.157C394.55 250.289 394.42 250.396 394.272 250.47C394.123 250.543 393.96 250.581 393.794 250.581ZM338.89 249.894H338.872C338.731 249.892 338.592 249.862 338.463 249.806C338.334 249.75 338.217 249.669 338.119 249.567C338.021 249.466 337.944 249.346 337.892 249.215C337.84 249.084 337.815 248.944 337.817 248.803C337.841 247.339 337.918 245.872 338.043 244.442C338.056 244.302 338.095 244.165 338.161 244.041C338.226 243.916 338.315 243.805 338.423 243.714C338.531 243.624 338.656 243.556 338.79 243.513C338.924 243.471 339.066 243.456 339.206 243.468C339.346 243.481 339.483 243.521 339.608 243.586C339.733 243.651 339.844 243.74 339.934 243.848C340.024 243.956 340.093 244.081 340.135 244.215C340.177 244.35 340.193 244.491 340.18 244.631C340.058 246.031 339.985 247.434 339.962 248.839C339.958 249.121 339.843 249.389 339.642 249.586C339.442 249.784 339.171 249.894 338.89 249.894ZM433.273 246.056C433.099 246.056 432.927 246.013 432.772 245.932C432.618 245.85 432.486 245.732 432.388 245.588C432.289 245.444 432.227 245.278 432.207 245.105C432.187 244.932 432.21 244.756 432.273 244.593C432.786 243.279 433.283 241.94 433.771 240.592C433.879 240.34 434.08 240.138 434.332 240.029C434.584 239.919 434.868 239.91 435.126 240.004C435.385 240.098 435.597 240.287 435.72 240.532C435.844 240.778 435.868 241.061 435.789 241.324C435.3 242.681 434.794 244.032 434.272 245.376C434.107 245.797 433.702 246.056 433.273 246.056ZM392.477 242.11C392.21 242.11 391.952 242.009 391.755 241.829C391.557 241.649 391.434 241.402 391.409 241.135L391.357 240.552C391.246 239.327 391.136 238.102 390.99 236.889C390.92 236.3 391.34 235.767 391.928 235.696C392.068 235.678 392.211 235.687 392.347 235.725C392.484 235.762 392.611 235.826 392.722 235.914C392.833 236.001 392.926 236.11 392.994 236.234C393.063 236.357 393.106 236.494 393.121 236.634C393.269 237.868 393.381 239.114 393.494 240.359L393.546 240.941C393.559 241.09 393.542 241.239 393.494 241.38C393.446 241.522 393.37 241.651 393.269 241.761C393.169 241.871 393.046 241.959 392.91 242.019C392.774 242.079 392.626 242.11 392.477 242.11ZM339.654 241.351C339.498 241.351 339.344 241.318 339.202 241.252C339.061 241.186 338.935 241.091 338.834 240.972C338.733 240.852 338.66 240.713 338.619 240.562C338.577 240.412 338.569 240.254 338.595 240.1C338.836 238.656 339.142 237.223 339.511 235.805C339.585 235.531 339.763 235.296 340.009 235.153C340.254 235.009 340.546 234.968 340.821 235.038C341.395 235.189 341.738 235.775 341.588 236.348C341.234 237.704 340.942 239.074 340.712 240.456C340.67 240.706 340.54 240.933 340.347 241.097C340.153 241.261 339.908 241.351 339.654 241.351ZM436.227 237.978C436.055 237.978 435.886 237.937 435.734 237.858C435.582 237.779 435.45 237.665 435.351 237.524C435.252 237.384 435.188 237.222 435.165 237.052C435.141 236.882 435.159 236.709 435.216 236.547C435.694 235.192 436.179 233.839 436.671 232.488C436.72 232.356 436.794 232.235 436.889 232.131C436.985 232.027 437.1 231.944 437.227 231.884C437.355 231.825 437.493 231.792 437.634 231.786C437.775 231.78 437.915 231.802 438.048 231.851C438.18 231.899 438.301 231.973 438.405 232.069C438.508 232.164 438.592 232.279 438.651 232.407C438.711 232.535 438.744 232.673 438.75 232.814C438.756 232.955 438.734 233.095 438.685 233.227C438.196 234.57 437.713 235.916 437.238 237.264C437.164 237.473 437.027 237.654 436.846 237.782C436.665 237.91 436.449 237.978 436.227 237.978ZM391.342 233.609C390.856 233.609 390.415 233.276 390.298 232.782C389.96 231.342 389.538 230.08 389.011 228.925C388.893 228.666 388.883 228.371 388.983 228.105C389.082 227.838 389.283 227.622 389.542 227.503C389.67 227.444 389.809 227.411 389.95 227.406C390.091 227.401 390.231 227.424 390.364 227.473C390.496 227.522 390.617 227.597 390.72 227.694C390.823 227.79 390.906 227.906 390.964 228.034C391.55 229.32 392.015 230.711 392.387 232.289C392.424 232.447 392.425 232.611 392.39 232.769C392.354 232.927 392.284 233.075 392.183 233.202C392.083 233.328 391.955 233.431 391.809 233.502C391.664 233.572 391.504 233.609 391.342 233.609ZM341.844 233.059C341.67 233.06 341.499 233.018 341.345 232.938C341.191 232.857 341.059 232.74 340.96 232.597C340.861 232.454 340.799 232.29 340.778 232.117C340.757 231.945 340.779 231.77 340.841 231.607C341.36 230.225 341.966 228.878 342.655 227.572C342.789 227.321 343.016 227.133 343.288 227.049C343.561 226.966 343.855 226.994 344.106 227.127C344.358 227.261 344.546 227.489 344.629 227.761C344.713 228.033 344.685 228.327 344.551 228.578C343.904 229.804 343.336 231.069 342.848 232.366C342.686 232.795 342.278 233.059 341.844 233.059ZM439.211 229.911C439.036 229.911 438.863 229.868 438.708 229.786C438.553 229.704 438.42 229.585 438.322 229.439C438.224 229.294 438.163 229.127 438.144 228.952C438.126 228.777 438.15 228.601 438.216 228.438C438.753 227.087 439.33 225.753 439.945 224.435C440.005 224.308 440.09 224.193 440.194 224.098C440.298 224.004 440.42 223.93 440.553 223.883C440.685 223.835 440.826 223.814 440.967 223.82C441.108 223.827 441.246 223.861 441.373 223.921C441.501 223.981 441.615 224.066 441.71 224.17C441.805 224.274 441.878 224.396 441.926 224.529C441.974 224.661 441.995 224.802 441.988 224.943C441.981 225.084 441.947 225.222 441.887 225.349C441.29 226.629 440.729 227.926 440.206 229.237C440.127 229.436 439.99 229.607 439.812 229.727C439.635 229.847 439.425 229.911 439.211 229.911ZM387.753 225.927C387.593 225.928 387.435 225.892 387.291 225.823C387.147 225.755 387.02 225.655 386.919 225.53C386.072 224.495 385.103 223.567 384.032 222.765C383.92 222.68 383.825 222.574 383.754 222.453C383.682 222.331 383.635 222.197 383.616 222.057C383.596 221.918 383.604 221.776 383.64 221.639C383.675 221.503 383.737 221.375 383.822 221.262C383.906 221.149 384.012 221.054 384.134 220.982C384.255 220.91 384.39 220.863 384.529 220.844C384.669 220.824 384.811 220.832 384.948 220.868C385.084 220.904 385.212 220.967 385.324 221.052C386.533 221.959 387.628 223.008 388.584 224.177C388.712 224.335 388.793 224.525 388.817 224.726C388.841 224.927 388.808 225.131 388.721 225.315C388.634 225.498 388.497 225.652 388.326 225.761C388.154 225.869 387.956 225.927 387.753 225.927ZM345.89 225.522C345.691 225.523 345.495 225.468 345.325 225.363C345.155 225.259 345.018 225.109 344.929 224.93C344.84 224.752 344.802 224.552 344.821 224.353C344.839 224.155 344.913 223.965 345.033 223.806C345.928 222.607 346.932 221.492 348.033 220.478C348.243 220.288 348.52 220.188 348.804 220.201C349.087 220.214 349.354 220.338 349.546 220.548C349.737 220.757 349.838 221.033 349.827 221.317C349.815 221.6 349.691 221.868 349.483 222.06C348.48 222.985 347.565 224 346.749 225.092C346.538 225.374 346.217 225.522 345.89 225.522ZM442.918 222.167C442.728 222.167 442.542 222.117 442.378 222.021C442.214 221.926 442.079 221.788 441.985 221.623C441.892 221.458 441.844 221.271 441.846 221.081C441.849 220.892 441.901 220.706 441.999 220.543C442.842 219.135 443.69 217.943 444.591 216.901C444.78 216.697 445.042 216.574 445.32 216.559C445.598 216.543 445.871 216.636 446.082 216.818C446.292 217.001 446.424 217.257 446.449 217.535C446.474 217.812 446.39 218.089 446.215 218.305C445.396 219.252 444.618 220.345 443.839 221.645C443.744 221.805 443.609 221.937 443.448 222.028C443.286 222.12 443.104 222.168 442.918 222.167ZM381.043 220.759C380.883 220.759 380.72 220.723 380.567 220.647C379.331 220.041 378.057 219.516 376.753 219.075C376.49 218.978 376.276 218.782 376.156 218.529C376.036 218.277 376.019 217.987 376.11 217.722C376.2 217.457 376.391 217.238 376.641 217.111C376.891 216.985 377.18 216.961 377.447 217.045C378.912 217.545 380.283 218.11 381.521 218.726C381.738 218.834 381.913 219.011 382.016 219.23C382.119 219.449 382.145 219.697 382.09 219.933C382.034 220.168 381.901 220.378 381.711 220.529C381.521 220.679 381.285 220.76 381.043 220.759ZM352.19 219.786C351.955 219.786 351.727 219.709 351.54 219.566C351.354 219.423 351.219 219.224 351.156 218.997C351.094 218.771 351.108 218.53 351.195 218.312C351.283 218.094 351.439 217.911 351.641 217.79C352.936 217.024 354.306 216.395 355.73 215.911C355.997 215.83 356.285 215.856 356.533 215.983C356.781 216.111 356.97 216.33 357.06 216.594C357.149 216.858 357.133 217.146 357.013 217.398C356.894 217.651 356.681 217.846 356.42 217.944C355.137 218.379 353.902 218.946 352.736 219.636C352.565 219.737 352.376 219.786 352.19 219.786ZM372.996 217.955C372.912 217.955 372.828 217.946 372.743 217.926C372.133 217.779 371.521 217.643 370.906 217.517C370.152 217.362 369.394 217.229 368.633 217.118C368.494 217.098 368.36 217.051 368.239 216.979C368.118 216.907 368.012 216.811 367.928 216.699C367.844 216.586 367.783 216.458 367.748 216.321C367.713 216.185 367.706 216.043 367.726 215.903C367.744 215.763 367.79 215.628 367.862 215.506C367.933 215.384 368.028 215.277 368.142 215.193C368.255 215.108 368.384 215.047 368.521 215.013C368.659 214.98 368.801 214.974 368.941 214.996C369.722 215.108 370.52 215.248 371.337 215.416C371.993 215.55 372.629 215.692 373.245 215.839C373.502 215.899 373.727 216.051 373.879 216.267C374.03 216.483 374.097 216.747 374.066 217.009C374.036 217.27 373.909 217.512 373.712 217.686C373.515 217.861 373.26 217.957 372.996 217.955ZM360.24 217.021C359.969 217.02 359.709 216.916 359.512 216.731C359.314 216.545 359.194 216.292 359.176 216.022C359.157 215.752 359.241 215.485 359.411 215.274C359.582 215.063 359.825 214.925 360.093 214.886C361.373 214.709 362.663 214.621 363.955 214.623H363.979L364.534 214.628C365.126 214.638 365.599 215.127 365.588 215.72C365.578 216.312 365.089 216.752 364.496 216.774L363.977 216.769C362.779 216.803 361.541 216.851 360.39 217.011C360.339 217.017 360.289 217.021 360.24 217.021ZM448.597 215.851C448.365 215.852 448.138 215.777 447.952 215.638C447.766 215.499 447.63 215.303 447.565 215.08C447.5 214.857 447.509 214.619 447.591 214.401C447.672 214.184 447.823 213.999 448.019 213.874C449.335 213.027 450.805 212.449 452.345 212.171C452.484 212.147 452.626 212.15 452.764 212.18C452.901 212.21 453.032 212.267 453.147 212.348C453.263 212.429 453.361 212.531 453.437 212.65C453.513 212.769 453.564 212.902 453.589 213.04C453.614 213.179 453.611 213.321 453.58 213.459C453.55 213.596 453.493 213.727 453.412 213.842C453.332 213.958 453.229 214.056 453.11 214.132C452.991 214.208 452.859 214.26 452.72 214.284C451.456 214.509 450.25 214.985 449.173 215.683C449.001 215.793 448.801 215.852 448.597 215.851ZM457.186 214.401C457.117 214.401 457.046 214.395 456.974 214.38L456.615 214.313C456.476 214.29 456.343 214.239 456.224 214.164C456.105 214.09 456.001 213.992 455.92 213.877C455.838 213.762 455.78 213.632 455.749 213.495C455.718 213.357 455.714 213.215 455.738 213.076C455.788 212.797 455.945 212.548 456.177 212.384C456.408 212.22 456.695 212.154 456.975 212.199L457.395 212.276C457.658 212.326 457.893 212.473 458.053 212.687C458.213 212.902 458.287 213.168 458.261 213.434C458.235 213.701 458.11 213.947 457.911 214.126C457.712 214.305 457.454 214.403 457.186 214.401Z" fill="#241726"/>
<path d="M444.633 297.519C444.633 297.519 468.475 281.197 468.912 284.643C469.348 288.089 474.792 297.903 470.918 300.494C467.045 303.085 448.445 311.041 447.407 308.371C446.369 305.702 444.633 297.519 444.633 297.519Z" fill="#EF9A36"/>
<path d="M452.594 321.719C452.594 321.719 482.561 309.524 484.375 312.795C486.189 316.066 485.954 330.801 485.954 330.801C485.954 330.801 455.464 338.861 454.339 335.503C453.213 332.144 452.594 321.719 452.594 321.719Z" fill="#E55D83"/>
<path d="M460.483 345.81C460.483 345.81 486.487 347.5 486.328 350.36C486.169 353.22 484.208 366.509 480.666 366.481C477.124 366.453 460.371 359.978 459.847 357.249C459.324 354.52 458.567 346.885 460.483 345.81Z" fill="#EF9A36"/>
<path d="M348.885 329.72C348.885 329.72 423.689 272.97 428.093 278.568C432.497 284.167 456.694 385.975 456.175 391.961C455.655 397.947 364.678 391.893 361.336 387.202L348.885 329.72ZM347.855 375.385C347.855 375.385 366.474 427.307 368.158 431.919C369.842 436.53 340.637 443.158 339.015 439.333C337.393 435.507 329.372 383.956 330.499 381.495C331.627 379.034 347.855 375.385 347.855 375.385ZM300.953 358.598C300.953 358.598 279.841 358.939 281.738 374.643C283.635 390.348 307.461 382.527 309.172 379.09C310.883 375.652 300.953 358.598 300.953 358.598Z" fill="#9D5580"/>
<path d="M348.887 329.72C348.887 329.72 310.809 332.719 300.335 350.719C289.861 368.719 303.214 392.785 311.675 394.086C323.042 395.834 357.786 392.434 361.338 387.202C364.89 381.971 348.887 329.72 348.887 329.72Z" fill="#F5D450"/>
<path d="M386.491 317.168C386.278 317.169 386.07 317.107 385.893 316.989C385.716 316.871 385.578 316.704 385.497 316.507C385.415 316.311 385.394 316.095 385.436 315.886C385.478 315.678 385.581 315.487 385.732 315.337C385.924 315.145 390.475 310.642 394.705 310.642C394.989 310.642 395.262 310.755 395.463 310.956C395.665 311.158 395.778 311.431 395.778 311.715C395.778 312 395.665 312.273 395.463 312.474C395.262 312.675 394.989 312.788 394.705 312.788C391.934 312.788 388.383 315.724 387.249 316.855C387.149 316.955 387.031 317.033 386.901 317.087C386.771 317.141 386.631 317.168 386.491 317.168ZM399.196 317.606C398.983 317.607 398.775 317.545 398.598 317.427C398.421 317.309 398.283 317.142 398.202 316.945C398.12 316.749 398.099 316.533 398.141 316.324C398.183 316.116 398.286 315.925 398.437 315.775C398.629 315.583 403.18 311.08 407.41 311.08C407.694 311.08 407.967 311.193 408.168 311.394C408.37 311.596 408.483 311.869 408.483 312.153C408.483 312.438 408.37 312.711 408.168 312.912C407.967 313.113 407.694 313.226 407.41 313.226C404.639 313.226 401.088 316.162 399.954 317.293C399.854 317.393 399.736 317.471 399.606 317.525C399.476 317.579 399.336 317.606 399.196 317.606ZM401.386 304.463C401.173 304.464 400.965 304.402 400.788 304.284C400.611 304.166 400.473 303.999 400.392 303.802C400.31 303.606 400.289 303.39 400.331 303.181C400.373 302.973 400.476 302.782 400.627 302.632C400.819 302.44 405.371 297.937 409.6 297.937C409.884 297.937 410.157 298.05 410.358 298.251C410.56 298.453 410.673 298.726 410.673 299.01C410.673 299.295 410.56 299.568 410.358 299.769C410.157 299.97 409.884 300.083 409.6 300.083C406.83 300.083 403.278 303.019 402.143 304.151C401.942 304.351 401.669 304.464 401.386 304.463ZM413.216 309.72C413.003 309.721 412.795 309.659 412.618 309.541C412.441 309.423 412.303 309.256 412.222 309.059C412.14 308.863 412.119 308.647 412.161 308.438C412.203 308.23 412.306 308.039 412.457 307.889C412.649 307.697 417.2 303.194 421.43 303.194C421.714 303.194 421.987 303.307 422.188 303.508C422.39 303.71 422.503 303.983 422.503 304.267C422.503 304.552 422.39 304.825 422.188 305.026C421.987 305.227 421.714 305.34 421.43 305.34C418.659 305.34 415.108 308.276 413.974 309.407C413.764 309.615 413.49 309.72 413.216 309.72ZM417.596 299.644C417.383 299.645 417.175 299.583 416.998 299.465C416.821 299.347 416.683 299.18 416.602 298.983C416.52 298.787 416.499 298.571 416.541 298.362C416.583 298.154 416.686 297.963 416.837 297.813C417.029 297.621 421.58 293.118 425.81 293.118C426.094 293.118 426.367 293.231 426.568 293.432C426.77 293.634 426.883 293.907 426.883 294.191C426.883 294.476 426.77 294.749 426.568 294.95C426.367 295.151 426.094 295.264 425.81 295.264C423.039 295.264 419.488 298.2 418.354 299.331C418.254 299.431 418.136 299.509 418.006 299.563C417.876 299.617 417.736 299.644 417.596 299.644ZM381.672 327.682C381.459 327.683 381.251 327.62 381.075 327.503C380.898 327.385 380.76 327.217 380.679 327.021C380.597 326.825 380.576 326.609 380.618 326.4C380.66 326.192 380.763 326.001 380.914 325.851C381.106 325.659 385.658 321.156 389.887 321.156C390.171 321.156 390.444 321.269 390.645 321.47C390.847 321.672 390.96 321.945 390.96 322.229C390.96 322.514 390.847 322.787 390.645 322.988C390.444 323.189 390.171 323.302 389.887 323.302C387.117 323.302 383.565 326.238 382.43 327.369C382.228 327.57 381.956 327.682 381.672 327.682ZM372.034 323.739C371.821 323.74 371.614 323.677 371.437 323.559C371.26 323.441 371.123 323.274 371.041 323.078C370.96 322.882 370.939 322.666 370.98 322.457C371.022 322.249 371.124 322.058 371.275 321.908C371.467 321.716 376.018 317.213 380.247 317.213C380.531 317.213 380.804 317.326 381.005 317.527C381.207 317.729 381.32 318.002 381.32 318.286C381.32 318.571 381.207 318.844 381.005 319.045C380.804 319.246 380.531 319.359 380.247 319.359C377.467 319.359 373.924 322.295 372.792 323.425C372.692 323.525 372.574 323.604 372.444 323.658C372.314 323.712 372.174 323.739 372.034 323.739ZM306.319 352.215C306.106 352.216 305.898 352.153 305.722 352.036C305.545 351.918 305.407 351.75 305.326 351.554C305.244 351.358 305.223 351.142 305.265 350.933C305.307 350.725 305.41 350.534 305.561 350.384C305.753 350.192 310.304 345.689 314.534 345.689C314.818 345.689 315.091 345.802 315.292 346.003C315.494 346.205 315.607 346.478 315.607 346.762C315.607 347.047 315.494 347.32 315.292 347.521C315.091 347.722 314.818 347.835 314.534 347.835C311.763 347.835 308.212 350.771 307.078 351.902C306.868 352.111 306.593 352.215 306.319 352.215ZM320.776 344.33C320.563 344.331 320.355 344.269 320.178 344.151C320.001 344.033 319.863 343.866 319.782 343.669C319.7 343.473 319.679 343.257 319.721 343.048C319.763 342.84 319.866 342.649 320.017 342.499C320.209 342.307 324.761 337.804 328.99 337.804C329.274 337.804 329.547 337.917 329.748 338.118C329.95 338.32 330.063 338.593 330.063 338.877C330.063 339.162 329.95 339.435 329.748 339.636C329.547 339.837 329.274 339.95 328.99 339.95C326.22 339.95 322.668 342.886 321.533 344.017C321.433 344.116 321.315 344.195 321.185 344.249C321.055 344.303 320.916 344.33 320.776 344.33ZM319.462 355.282C319.249 355.283 319.041 355.221 318.864 355.103C318.687 354.985 318.549 354.818 318.468 354.621C318.386 354.425 318.365 354.209 318.407 354C318.449 353.792 318.552 353.601 318.703 353.451C318.895 353.259 323.446 348.756 327.676 348.756C327.96 348.756 328.233 348.869 328.434 349.07C328.636 349.272 328.749 349.545 328.749 349.829C328.749 350.114 328.636 350.387 328.434 350.588C328.233 350.789 327.96 350.902 327.676 350.902C324.905 350.902 321.354 353.838 320.22 354.97C320.018 355.17 319.746 355.282 319.462 355.282ZM305.443 361.416C305.23 361.417 305.022 361.355 304.845 361.237C304.668 361.119 304.53 360.952 304.449 360.755C304.367 360.559 304.346 360.343 304.388 360.134C304.43 359.926 304.533 359.735 304.684 359.585C304.876 359.393 309.427 354.89 313.657 354.89C313.941 354.89 314.214 355.003 314.415 355.204C314.617 355.406 314.73 355.679 314.73 355.963C314.73 356.248 314.617 356.521 314.415 356.722C314.214 356.923 313.941 357.036 313.657 357.036C310.886 357.036 307.335 359.972 306.201 361.104C305.999 361.304 305.727 361.416 305.443 361.416Z" fill="#241726"/>
</g>
<defs>
<clipPath id="clip0_1549_8605">
<rect width="512" height="512" fill="white"/>
</clipPath>
</defs>
</svg>
